<?xml version="1.0" standalone="no"?>
<!DOCTYPE svg PUBLIC "-//W3C//DTD SVG 20010904//EN"
 "http://www.w3.org/TR/2001/REC-SVG-20010904/DTD/svg10.dtd">
<svg version="1.0" xmlns="http://www.w3.org/2000/svg"
 width="691.000000pt" height="691.000000pt" viewBox="0 0 691.000000 691.000000"
 preserveAspectRatio="xMidYMid meet">
<metadata>
Created by potrace 1.16, written by Peter Selinger 2001-2019
</metadata>
<g transform="translate(0.000000,691.000000) scale(0.100000,-0.100000)"
fill="#000000" stroke="none">
<path d="M2895 6718 c-49 -18 -83 -47 -109 -91 -24 -43 -43 -127 -28 -127 5 0
9 15 10 33 3 70 49 138 117 168 37 17 77 19 555 19 480 0 518 -2 555 -19 47
-22 89 -64 104 -104 6 -16 11 -97 11 -180 0 -174 -5 -190 -71 -207 -23 -6 -39
-14 -36 -17 11 -11 77 19 97 44 18 23 20 40 20 187 0 148 -2 164 -23 201 -12
21 -42 53 -65 70 l-44 30 -531 2 c-359 1 -542 -2 -562 -9z"/>
<path d="M2914 6636 c-17 -8 -40 -26 -52 -41 -20 -25 -22 -39 -22 -167 l0
-138 26 -10 c34 -13 1114 -13 1148 0 l26 10 0 130 c0 152 -9 179 -70 210 -38
19 -58 20 -532 20 -390 -1 -499 -4 -524 -14z m1028 -6 c20 -6 48 -24 62 -41
25 -29 26 -36 26 -159 0 -71 -4 -131 -9 -135 -12 -7 -1106 -15 -1143 -8 l-28
6 0 137 c0 136 0 137 28 165 15 15 36 31 47 36 30 12 973 11 1017 -1z"/>
<path d="M2751 6474 c0 -11 3 -14 6 -6 3 7 2 16 -1 19 -3 4 -6 -2 -5 -13z"/>
<path d="M2751 6388 c-1 -16 4 -28 9 -28 12 0 12 8 0 35 -8 18 -9 17 -9 -7z"/>
<path d="M2761 6303 c0 -18 4 -43 10 -57 13 -27 64 -56 99 -56 l22 0 -4 -332
c-4 -306 -7 -338 -26 -393 -36 -103 -49 -129 -97 -193 -57 -76 -139 -141 -275
-220 -218 -125 -285 -169 -379 -247 -148 -124 -234 -249 -288 -420 l-28 -90
-3 -1855 c-3 -2053 -6 -1939 61 -2050 44 -73 110 -126 193 -155 l69 -25 1310
0 c1458 0 1380 -4 1485 68 30 20 71 60 92 87 38 50 79 150 77 189 0 12 -7 -3
-15 -33 -33 -123 -123 -229 -232 -273 l-57 -23 -1340 0 -1340 0 -57 23 c-118
48 -202 154 -228 287 -8 44 -10 551 -8 1910 4 2067 -3 1877 74 2043 92 200
273 366 579 532 237 128 354 248 412 423 27 81 27 84 31 425 3 306 2 341 -12
336 -20 -8 -81 13 -97 32 -7 9 -16 34 -20 57 -6 38 -7 39 -8 10z"/>
<path d="M3984 5890 c0 -179 2 -252 3 -162 2 89 2 235 0 325 -1 89 -3 16 -3
-163z"/>
<path d="M2967 5863 c-5 -379 -7 -397 -78 -542 -72 -147 -187 -246 -464 -401
-221 -124 -343 -227 -436 -368 -57 -87 -82 -151 -103 -262 -14 -73 -16 -292
-16 -1886 0 -1297 3 -1818 11 -1856 27 -125 96 -205 209 -239 64 -19 94 -19
1365 -17 l1300 3 63 29 c76 35 132 95 164 175 l23 56 0 1840 0 1840 -22 87
c-29 111 -69 192 -148 293 -98 126 -204 208 -435 335 -163 90 -225 133 -307
216 -80 80 -130 171 -160 289 -15 60 -18 118 -18 407 l0 338 -472 0 -471 0 -5
-337z m935 -10 c5 -370 12 -422 74 -544 77 -153 168 -230 469 -399 71 -40 153
-90 182 -111 211 -157 331 -345 362 -572 16 -112 15 -3585 0 -3659 -15 -72
-64 -162 -105 -193 -19 -15 -56 -36 -82 -48 l-47 -22 -1320 0 -1320 0 -57 28
c-67 33 -129 99 -155 165 -17 45 -18 133 -21 1877 -2 1644 -1 1838 13 1910 32
160 92 270 210 389 92 93 176 153 360 256 228 128 316 199 394 315 103 155
121 249 121 651 l0 294 459 0 459 0 4 -337z"/>
<path d="M3087 6042 c-21 -23 -22 -46 -1 -66 13 -14 60 -16 359 -16 299 0 346
2 359 16 9 8 16 21 16 27 0 6 -7 2 -15 -10 -14 -21 -19 -21 -357 -19 -189 0
-349 5 -355 9 -17 11 -16 42 1 56 10 9 108 11 359 9 190 -2 340 0 334 4 -7 4
-163 8 -348 8 -313 0 -337 -1 -352 -18z"/>
<path d="M4246 4754 c-3 -9 -6 -50 -6 -93 0 -72 9 -101 33 -101 5 0 1 7 -7 16
-20 19 -23 163 -4 182 8 8 8 12 1 12 -6 0 -14 -7 -17 -16z"/>
<path d="M4298 4760 c7 -9 12 -44 12 -95 0 -51 -5 -86 -12 -95 -11 -12 -10
-12 5 -1 14 11 17 29 17 96 0 67 -3 85 -17 96 -15 11 -16 11 -5 -1z"/>
<path d="M3888 4589 c-10 -5 -18 -15 -18 -20 0 -6 7 -3 16 5 23 23 28 21 86
-34 70 -67 76 -64 8 5 -57 57 -64 61 -92 44z"/>
<path d="M4587 4544 c-31 -31 -57 -59 -57 -64 0 -5 25 18 57 51 59 62 76 70
92 42 6 -10 11 -13 11 -7 0 13 -21 34 -35 34 -6 0 -36 -25 -68 -56z"/>
<path d="M3870 4542 c0 -10 109 -117 112 -111 2 2 -23 30 -54 61 -32 32 -58
54 -58 50z"/>
<path d="M4620 4481 c-69 -69 -65 -72 12 -8 39 33 66 67 56 71 -2 1 -32 -28
-68 -63z"/>
<path d="M4175 4497 c-122 -48 -196 -142 -220 -278 -8 -45 18 -153 45 -191 11
-15 20 -31 20 -37 0 -5 7 -11 15 -15 27 -10 16 -30 -49 -95 -66 -65 -98 -76
-104 -35 -2 15 14 37 57 76 79 71 79 85 1 17 -63 -55 -81 -89 -60 -114 23 -27
48 -16 121 55 72 70 72 70 93 51 50 -45 87 -56 191 -56 97 0 102 1 158 35 32
19 73 44 92 55 l34 20 61 -60 c33 -33 60 -55 60 -49 0 17 -107 114 -125 114
-9 0 -15 3 -13 8 80 159 75 283 -15 394 -54 66 -149 119 -210 117 l-42 -1 47
-8 c113 -19 224 -114 254 -218 42 -144 -25 -300 -161 -369 -67 -35 -172 -42
-244 -18 -69 23 -161 107 -190 175 -75 173 37 384 226 429 27 6 31 9 13 9 -14
0 -38 -5 -55 -11z"/>
<path d="M2510 4431 c-70 -22 -93 -35 -158 -85 -94 -73 -149 -179 -159 -305
-16 -214 116 -407 315 -460 179 -49 454 50 428 154 -5 19 -19 26 -100 44 -138
32 -204 81 -264 195 -23 44 -27 63 -27 141 0 76 4 98 26 145 14 30 42 73 63
94 20 22 36 47 36 56 0 18 -19 40 -34 40 -6 0 -3 -5 7 -11 26 -15 21 -39 -17
-79 -19 -19 -47 -60 -63 -90 -25 -49 -28 -65 -28 -150 1 -112 19 -163 86 -235
57 -62 108 -90 214 -118 73 -19 91 -28 93 -44 4 -26 -55 -78 -128 -112 -49
-23 -67 -26 -170 -26 -109 0 -119 2 -182 32 -188 89 -285 296 -233 498 42 159
156 268 335 316 36 9 54 17 40 18 -14 0 -50 -8 -80 -18z"/>
<path d="M4209 4427 c-92 -34 -146 -91 -169 -178 -29 -107 28 -225 135 -282
81 -43 208 -22 284 46 58 53 86 168 61 257 -32 117 -197 200 -311 157z m143
-9 c51 -15 126 -82 149 -133 69 -151 -46 -327 -216 -329 -116 -2 -210 74 -236
189 -38 170 133 324 303 273z"/>
<path d="M2454 4322 c-88 -57 -140 -122 -166 -205 -47 -155 9 -325 134 -410
89 -59 218 -73 333 -36 36 12 65 25 65 29 0 4 -18 10 -40 13 -88 12 -196 89
-256 183 -75 117 -84 263 -26 388 18 38 32 70 32 72 0 11 -22 1 -76 -34z m31
-35 c-103 -224 26 -508 265 -583 l35 -11 -30 -14 c-19 -8 -67 -13 -130 -13
-85 0 -107 3 -150 24 -66 33 -125 93 -161 166 -25 52 -29 70 -29 149 0 76 4
98 26 145 30 63 82 120 148 161 25 16 46 29 47 29 2 0 -8 -24 -21 -53z"/>
<path d="M3722 4218 c-7 -7 -12 -19 -12 -28 0 -32 22 -40 105 -38 l80 2 -85 5
c-82 6 -85 7 -85 31 0 25 1 25 92 25 50 0 89 3 86 8 -7 12 -168 8 -181 -5z"/>
<path d="M4650 4208 c-10 -21 -10 -21 3 -5 11 14 30 17 94 17 49 0 84 -5 93
-12 12 -11 12 -10 1 5 -11 14 -29 17 -97 17 -76 0 -84 -2 -94 -22z"/>
<path d="M2996 4192 c-2 -4 11 -8 28 -9 46 -4 115 -29 158 -59 l37 -26 43 29
c24 16 56 34 71 41 36 16 99 15 117 0 12 -11 12 -10 1 5 -27 35 -126 15 -199
-40 l-32 -24 -29 20 c-57 41 -183 82 -195 63z"/>
<path d="M4833 4169 c-6 -6 -44 -9 -96 -7 -47 2 -83 0 -80 -4 2 -5 42 -8 87
-8 62 0 87 4 96 15 14 17 9 20 -7 4z"/>
<path d="M2986 4121 c5 -4 35 -15 66 -25 31 -11 78 -36 103 -57 26 -22 53 -39
59 -39 7 0 30 15 52 34 49 41 89 62 137 71 20 4 39 11 42 15 8 13 -85 -14
-131 -38 -22 -11 -46 -28 -54 -37 -32 -39 -49 -38 -103 3 -29 22 -62 44 -73
50 -26 14 -110 33 -98 23z"/>
<path d="M4530 3931 c11 -21 119 -126 122 -120 2 2 -27 34 -64 70 -37 37 -63
59 -58 50z"/>
<path d="M4257 3813 c-16 -4 -17 -15 -15 -90 2 -69 6 -88 21 -97 12 -8 22 -8
35 0 13 9 17 26 18 85 0 48 0 54 -3 19 -5 -87 -11 -102 -36 -98 -20 3 -22 9
-25 84 -2 69 0 83 14 88 9 3 23 1 30 -5 9 -7 14 -8 14 -1 0 8 -27 25 -33 21
-1 -1 -10 -3 -20 -6z"/>
<path d="M3203 3789 c-7 -7 -13 -22 -12 -33 1 -18 2 -17 8 4 5 19 14 26 40 28
41 4 113 -21 159 -55 30 -22 35 -23 50 -10 27 23 83 50 137 64 l50 13 -44 -4
c-25 -3 -71 -18 -103 -35 l-58 -30 -60 31 c-66 34 -148 47 -167 27z"/>
<path d="M3657 3750 c-3 -13 -13 -20 -29 -20 -31 0 -115 -40 -154 -73 -39 -33
-48 -33 -86 -2 -43 36 -97 62 -143 69 -31 5 -24 1 26 -17 37 -12 83 -37 103
-55 43 -37 75 -41 102 -11 30 33 95 67 141 75 30 4 44 12 49 26 3 11 4 22 1
24 -2 3 -7 -4 -10 -16z"/>
<path d="M3793 3459 c-30 -19 -99 -101 -377 -448 -59 -75 -110 -138 -112 -140
-2 -3 -80 70 -172 160 -92 91 -181 175 -199 187 -39 28 -86 28 -130 1 -54 -33
-633 -674 -632 -699 0 -12 2 -12 7 1 7 17 36 49 378 425 237 259 264 284 308
284 44 0 76 -26 276 -218 l164 -159 121 151 c66 83 158 198 204 256 105 132
159 189 190 201 49 20 83 -5 253 -184 251 -265 370 -389 529 -552 272 -279
278 -287 223 -301 -31 -8 -62 23 -494 481 -385 409 -461 485 -486 485 -17 0
-93 -88 -332 -387 -533 -666 -501 -628 -530 -628 -57 0 -39 34 122 231 l156
189 -186 183 c-110 107 -195 182 -206 182 -17 0 -94 -75 -204 -200 -61 -69
-325 -358 -382 -419 -41 -44 -55 -53 -76 -49 -14 3 -23 1 -20 -3 10 -16 63 -9
76 9 7 11 56 66 109 123 53 57 183 200 289 317 105 116 197 212 203 212 20 0
29 -9 208 -185 118 -116 169 -173 163 -181 -5 -7 -73 -91 -151 -188 -79 -97
-143 -184 -143 -194 0 -51 56 -55 96 -8 49 57 324 398 562 696 125 157 235
286 244 288 17 3 119 -98 374 -368 375 -399 574 -600 593 -600 10 0 26 6 36
14 32 23 11 55 -145 213 -80 82 -222 229 -315 328 -436 461 -457 482 -502 501
-42 18 -52 18 -90 -7z"/>
<path d="M1953 2410 c-25 -10 -31 -51 -10 -67 6 -5 68 -15 137 -21 252 -23
508 -79 891 -196 118 -36 228 -70 243 -76 15 -5 33 -10 39 -9 20 1 -56 27
-278 95 -361 112 -638 172 -902 197 -119 11 -128 14 -131 34 -6 38 25 45 160
34 168 -14 335 -44 562 -102 43 -11 80 -18 83 -16 8 9 -333 87 -463 106 -163
25 -302 34 -331 21z"/>
<path d="M4080 2379 c-202 -30 -450 -92 -642 -161 -81 -29 -98 -43 -97 -77 l2
-26 4 28 c5 35 31 47 238 110 316 96 489 127 770 136 l210 8 -180 0 c-129 1
-215 -4 -305 -18z"/>
<path d="M4590 2384 c14 -2 65 -11 114 -20 101 -18 188 -47 213 -72 13 -13 15
-14 11 -2 -11 34 -175 86 -296 94 -37 3 -56 3 -42 0z"/>
<path d="M4170 2310 c-238 -35 -461 -87 -675 -159 -66 -23 -129 -41 -141 -41
-11 0 -90 22 -175 49 -228 73 -400 122 -412 118 -7 -2 27 -14 73 -26 70 -19
263 -77 580 -176 120 -37 208 -48 450 -54 236 -6 245 -7 245 -26 0 -37 -42
-46 -232 -46 -197 -1 -306 13 -492 61 -114 30 -170 35 -69 7 222 -63 335 -78
559 -79 204 0 232 5 244 42 14 45 -5 50 -204 50 -102 0 -226 5 -276 11 -96 12
-234 44 -247 57 -9 9 225 85 391 129 258 67 584 98 787 74 56 -6 152 -25 214
-41 112 -30 140 -29 140 3 0 6 -6 3 -13 -7 -12 -17 -16 -17 -83 3 -141 43
-206 52 -404 56 -107 2 -224 0 -260 -5z"/>
<path d="M3216 1764 c-168 -41 -307 -166 -342 -309 -4 -16 -11 -33 -17 -36 -5
-4 -6 -17 -2 -30 7 -20 10 -16 22 31 35 136 101 226 211 283 105 56 251 84
280 55 17 -17 15 -74 -8 -162 -39 -155 -116 -253 -247 -313 -53 -24 -86 -34
-110 -31 -29 3 -31 2 -19 -10 27 -27 168 31 243 101 90 83 145 198 159 331 6
56 4 69 -11 86 -22 24 -72 25 -159 4z"/>
<path d="M2361 1746 c3 -3 48 -11 101 -19 178 -27 289 -101 358 -241 17 -33
28 -50 24 -36 -22 82 -110 188 -191 233 -27 14 -75 32 -108 40 -60 15 -192 31
-184 23z"/>
<path d="M2320 1725 c-18 -22 2 -126 41 -220 66 -160 194 -250 382 -270 l66
-7 5 -52 c3 -28 8 -109 10 -180 l6 -128 -33 6 c-17 3 -77 8 -132 10 l-100 5
95 -9 c52 -5 115 -14 139 -19 l43 -9 -6 141 c-4 78 -9 167 -12 199 l-6 56 -66
1 c-208 2 -369 147 -417 375 -15 73 -15 80 1 97 9 11 12 19 7 19 -6 0 -16 -7
-23 -15z"/>
<path d="M3218 1681 c-115 -31 -200 -96 -247 -189 -21 -42 -65 -200 -51 -186
4 5 15 37 24 71 30 119 79 192 168 249 40 26 165 64 186 57 6 -3 12 0 12 6 0
14 -12 13 -92 -8z"/>
<path d="M3281 1618 c-38 -153 -119 -241 -264 -287 -20 -7 -42 -22 -48 -34
-12 -22 -12 -22 13 1 13 12 30 22 37 22 7 0 42 14 77 30 100 48 175 155 199
283 11 55 1 44 -14 -15z"/>
<path d="M2405 1629 c39 -181 161 -295 335 -315 l62 -7 -7 34 c-40 189 -156
296 -339 316 l-58 6 7 -34z m113 5 c32 -9 73 -25 92 -34 38 -19 109 -91 131
-131 17 -32 50 -142 44 -148 -9 -9 -127 18 -169 39 -94 45 -162 131 -191 241
l-13 49 25 0 c14 0 50 -7 81 -16z"/>
<path d="M4311 1489 c-122 -24 -248 -116 -300 -220 l-29 -59 -31 49 c-65 107
-191 171 -336 171 -63 0 -76 -3 -88 -21 -13 -18 -13 -28 -1 -82 30 -127 98
-229 189 -282 43 -26 150 -55 202 -55 39 0 43 -11 46 -124 l2 -78 -148 -42
c-81 -23 -153 -48 -160 -55 -10 -11 -8 -12 8 -3 11 5 63 22 115 36 52 15 119
34 149 43 l54 15 -6 88 c-8 109 -19 140 -47 135 -35 -7 -129 13 -185 39 -29
13 -71 42 -94 65 -62 62 -121 191 -121 268 0 41 21 47 124 41 135 -9 247 -82
307 -200 l26 -52 7 35 c3 19 25 64 49 99 69 106 185 171 327 187 74 7 84 -5
78 -95 -12 -160 -130 -310 -288 -365 -28 -10 -37 -16 -23 -17 30 0 151 65 191
103 74 71 132 204 132 302 0 82 -32 97 -149 74z"/>
<path d="M4311 1404 c-75 -20 -114 -40 -165 -85 -47 -41 -89 -118 -100 -179
-3 -19 4 -6 17 30 31 92 116 178 206 208 58 20 101 28 101 19 0 -2 -7 -28 -16
-58 -32 -108 -108 -193 -212 -234 -43 -17 -66 -55 -45 -76 5 -5 9 2 8 18 0 22
9 31 67 60 111 57 180 149 203 276 8 42 10 41 -64 21z"/>
<path d="M3608 1329 c5 -19 7 -20 10 -6 5 22 43 22 111 0 76 -24 128 -74 168
-161 19 -41 32 -76 29 -80 -9 -8 -116 18 -156 38 -48 25 -97 78 -126 136 -13
27 -24 43 -24 36 0 -24 48 -107 82 -139 43 -42 110 -71 183 -79 l58 -7 -7 29
c-10 39 -50 117 -81 158 -37 49 -115 88 -191 94 -62 5 -63 4 -56 -19z"/>
<path d="M2899 1185 c3 -55 6 -155 6 -222 l0 -121 65 -17 c111 -29 218 -61
422 -124 361 -112 658 -175 808 -170 19 1 -14 7 -75 14 -168 19 -371 56 -401
73 -18 10 443 126 583 147 57 8 131 15 165 15 90 0 240 -25 336 -55 46 -14 88
-25 94 -23 17 6 -158 56 -256 73 -185 32 -339 14 -711 -82 -121 -32 -236 -57
-256 -56 -41 1 -152 31 -384 105 -88 28 -207 63 -265 78 l-105 26 -7 180 c-5
98 -12 197 -17 219 -6 27 -7 8 -2 -60z"/>
<path d="M4027 1086 c-3 -8 1 -54 9 -103 7 -48 14 -111 14 -140 l0 -51 53 14
c107 29 282 54 382 54 185 0 416 -57 442 -110 7 -14 13 -18 13 -10 0 37 -37
57 -175 96 -91 26 -115 28 -270 29 -164 0 -231 -7 -365 -41 -30 -8 -58 -14
-62 -14 -4 0 -8 21 -8 48 0 26 -7 84 -15 130 -8 45 -12 89 -9 97 4 8 4 15 1
15 -3 0 -7 -6 -10 -14z"/>
<path d="M2523 893 c9 -2 23 -2 30 0 6 3 -1 5 -18 5 -16 0 -22 -2 -12 -5z"/>
<path d="M2305 875 c-111 -20 -235 -52 -298 -75 -75 -28 -69 -36 7 -10 84 30
294 78 383 88 64 8 69 9 28 10 -27 0 -81 -6 -120 -13z"/>
<path d="M2385 803 c-84 -11 -204 -36 -300 -64 -59 -17 -113 -28 -120 -25 -7
2 -15 15 -18 28 -4 21 -4 21 -6 2 -3 -47 21 -49 147 -15 420 115 620 99 1272
-104 129 -41 271 -83 315 -94 139 -35 346 -69 461 -77 107 -6 112 -6 123 14
17 31 13 40 -5 13 -16 -23 -19 -23 -118 -16 -112 8 -339 45 -456 75 -42 11
-177 51 -301 90 -272 86 -492 144 -619 165 -86 14 -297 18 -375 8z"/>
<path d="M3991 5541 c-2 -39 29 -141 61 -205 35 -69 135 -173 218 -228 30 -19
114 -68 185 -108 185 -103 269 -163 356 -249 123 -123 196 -246 241 -406 l23
-80 5 -1845 5 -1845 0 1850 -1 1850 -22 78 c-41 147 -132 298 -248 412 -77 76
-199 160 -379 260 -292 162 -390 274 -435 500 -5 24 -8 31 -9 16z"/>
</g>
</svg>
