    <svg version="1.1" id="Layer_1" xmlns="http://www.w3.org/2000/svg" xmlns:xlink="http://www.w3.org/1999/xlink" x="0px" y="0px"
    	 width="100%" viewBox="0 0 800 800" enable-background="new 0 0 800 800" xml:space="preserve">
    <path fill="currentColor" opacity="1.000000" stroke="none"
	d="
M386.000000,801.000000
	C257.333344,801.000000 129.166672,801.000000 1.000000,801.000000
	C1.000000,534.333313 1.000000,267.666656 1.000000,1.000000
	C267.666656,1.000000 534.333313,1.000000 801.000000,1.000000
	C801.000000,267.666656 801.000000,534.333313 801.000000,801.000000
	C662.833313,801.000000 524.666687,801.000000 386.000000,801.000000
M96.978561,472.607330
	C99.751236,457.160278 102.523918,441.713257 105.303162,426.229614
	C116.720238,423.469574 127.557297,419.493958 136.712952,411.970367
	C141.664352,407.901581 146.405518,403.572327 151.156815,399.267090
	C152.914932,397.673981 153.217758,395.426453 151.260208,394.062164
	C150.365005,393.438202 147.983414,393.965546 146.893280,394.788544
	C143.749222,397.162140 140.905029,399.936005 137.968384,402.580750
	C128.880692,410.765137 118.485764,416.347870 106.689095,418.835114
	C106.820045,416.628601 106.743050,414.688812 107.076408,412.822296
	C109.667358,398.315308 112.006149,383.751221 115.102776,369.350952
	C117.073608,360.185974 116.487984,350.012665 125.768509,343.372925
	C131.225891,339.468445 136.779343,336.566681 143.284653,336.061127
	C156.278458,335.051239 163.689102,343.433838 168.986389,354.518097
	C173.915344,364.831696 178.475006,375.321503 183.347061,385.663086
	C183.827774,386.683502 185.455063,387.969055 186.380554,387.846893
	C193.605270,386.893066 200.776993,385.547729 207.987488,384.473755
	C216.348663,383.228363 224.716278,381.991913 233.113846,381.040527
	C237.069550,380.592377 240.282410,383.113037 240.573456,386.616241
	C240.796127,389.296539 239.035965,393.958466 237.040482,394.689545
	C228.673065,397.755341 219.969238,400.074707 211.229355,401.908234
	C200.618774,404.134277 189.782440,405.286652 179.175980,407.528931
	C174.459518,408.526001 171.768478,407.460693 169.658051,403.303375
	C162.513504,389.229309 155.170197,375.256042 148.047699,361.170990
	C146.780014,358.664093 145.312210,356.213470 142.522690,357.494537
	C141.571854,357.931244 141.312683,362.059998 142.147751,363.840271
	C147.131119,374.464447 152.752426,384.791870 157.636719,395.458344
	C158.971558,398.373444 159.391953,402.308929 158.693832,405.432373
	C157.063461,412.726837 154.499557,419.812653 152.264267,427.145233
	C142.550232,427.772949 132.870621,428.371918 123.195595,429.037323
	C119.607971,429.284027 115.982437,429.443573 112.474823,430.145691
	C111.194954,430.401886 110.207161,432.117279 109.086105,433.167023
	C110.179962,434.108917 111.308121,435.903503 112.362389,435.861084
	C123.209846,435.424744 134.042648,434.638611 144.886169,434.078888
	C147.446198,433.946747 150.876114,433.276611 152.466904,434.592926
	C162.429138,442.836395 171.642776,452.009430 181.823029,459.953674
	C186.616592,463.694427 188.274582,467.467651 188.091965,473.192719
	C187.539551,490.511353 187.492889,507.846344 186.910797,525.163574
	C186.769348,529.372253 188.412506,531.392456 191.935730,533.042419
	C195.683502,534.797546 199.276367,536.960815 202.684875,539.311218
	C203.590591,539.935730 204.040115,541.991333 203.805389,543.218933
	C203.658737,543.985901 201.903793,544.718750 200.760513,544.973877
	C196.027313,546.030273 191.262848,546.957520 186.489929,547.822266
	C179.480896,549.091980 172.454834,550.267761 165.845612,551.412598
	C165.513657,548.000122 165.076859,545.339478 165.023743,542.671204
	C164.636520,523.224792 164.285599,503.777344 164.033447,484.328827
	C163.992996,481.207123 162.748230,479.499542 160.006302,477.938507
	C150.343063,472.437134 140.809860,466.696106 131.385025,460.794189
	C128.659760,459.087616 125.786949,456.015289 123.209442,459.269714
	C120.270309,462.980743 125.190269,464.286926 126.986641,466.474884
	C127.180649,466.711121 127.532875,466.818542 127.813667,466.982300
	C136.969040,472.323334 146.172867,477.584656 155.226257,483.093231
	C156.524567,483.883209 157.855850,485.847534 157.891251,487.299591
	C158.393082,507.879211 158.649536,528.464661 159.037674,549.047363
	C159.087112,551.669373 158.354538,552.724792 155.477646,553.132263
	C143.987946,554.759460 132.553085,556.773926 121.109093,558.643250
	C120.260094,552.501465 115.919395,549.527222 111.265182,547.192139
	C107.060905,545.082764 106.022217,542.950928 108.592255,538.624573
	C111.193504,534.245605 112.842880,529.308960 115.016197,524.666626
	C121.629578,510.540009 128.382614,496.477417 134.820297,482.271667
	C135.566345,480.625427 135.415756,477.054260 134.400101,476.417114
	C131.521637,474.611328 130.134232,477.406677 129.075867,479.646667
	C122.323357,493.938354 115.608994,508.248047 108.904030,522.562134
	C106.242950,528.243103 103.385666,533.850098 101.073509,539.671814
	C98.378693,546.457092 99.269737,548.314209 105.717911,551.927917
	C110.088203,554.377136 114.841026,556.508728 113.997719,562.919495
	C113.910576,563.581848 114.331947,564.311218 114.689049,565.656006
	C128.757904,563.698730 142.545242,562.096252 156.216125,559.800293
	C174.017181,556.810730 191.758224,553.434326 209.465195,549.922424
	C227.596649,546.326355 245.848633,543.096069 263.698547,538.382751
	C286.921692,532.250732 309.951050,525.275452 332.787872,517.818054
	C359.221954,509.185974 384.655426,498.080780 408.719147,483.996002
	C419.166626,477.880981 429.729614,471.876953 437.711090,462.545715
	C441.415710,458.214630 445.623840,453.642883 442.951843,446.982361
	C441.026489,442.182922 437.076172,439.543854 432.481232,438.102814
	C423.824493,435.388092 415.041382,433.076294 405.517883,430.371826
	C407.679993,429.013977 409.179993,427.736084 410.913239,427.034485
	C432.509796,418.292969 453.894501,408.943146 475.831726,401.152130
	C497.391144,393.495300 519.392334,386.873505 542.239075,383.989532
	C559.743896,381.779877 577.271729,379.653900 594.844116,378.117859
	C603.609314,377.351715 612.498413,378.082123 621.329529,377.975403
	C638.797974,377.764343 656.069214,379.562744 673.391846,381.769775
	C691.648376,384.095795 709.183899,388.971497 726.630920,394.344269
	C730.359680,395.492523 732.392639,395.109833 734.721924,390.706421
	C712.920898,381.082397 689.827515,377.787720 667.297241,373.763702
	C667.297241,363.885345 667.297241,354.541138 667.297241,345.528015
	C669.732117,344.841949 671.937805,344.220490 675.620667,343.182831
	C673.073181,340.837585 671.565796,339.445923 670.053650,338.059448
	C669.358032,337.421722 668.372864,336.928223 667.995911,336.141022
	C664.401550,328.634827 659.986755,322.059509 652.684387,320.933380
	C650.048340,314.325287 648.849731,308.107758 645.408936,303.602631
	C641.996643,299.134796 636.325806,296.391876 632.057495,293.200439
	C632.600891,291.670715 634.157471,288.292267 633.818909,288.090271
	C629.366516,285.433899 631.166260,280.700562 630.316162,277.134979
	C629.670593,274.427185 628.147888,274.166199 626.565125,273.205231
	C625.718567,274.845306 624.463806,276.405640 624.124146,278.144745
	C623.653076,280.555969 624.806824,284.585114 623.627808,285.329926
	C618.799316,288.380157 621.554810,291.381836 622.749451,294.675964
	C609.605103,298.370667 604.915955,308.359131 603.827209,320.694336
	C597.847351,323.185364 593.183960,326.783203 590.730408,332.755219
	C589.534058,335.667267 588.026489,338.120697 585.032715,339.748505
	C583.744995,340.448730 583.315247,342.726807 582.079346,345.081268
	C584.918884,345.081268 586.328857,345.081268 587.784790,345.081268
	C587.784790,354.205780 587.784790,362.957916 587.784790,371.787842
	C581.153076,372.215576 574.695374,372.195831 568.378479,373.128937
	C554.581238,375.167023 540.668030,376.916443 527.144897,380.196533
	C507.270264,385.017151 487.611725,390.796173 468.025787,396.712036
	C457.428680,399.912842 447.030029,403.900574 436.801086,408.156433
	C424.936676,413.092773 413.255127,418.504120 401.698303,424.128632
	C396.353424,426.729889 396.540436,433.199341 401.772125,435.860138
	C404.460419,437.227448 407.438324,438.075806 410.349152,438.945007
	C417.257080,441.007751 424.265045,442.753174 431.114471,444.988617
	C436.802917,446.845123 438.389496,451.889038 434.361450,456.048798
	C429.528381,461.039978 424.449097,465.971558 418.787537,469.948120
	C401.738342,481.922821 383.074036,491.074585 363.862335,498.942841
	C349.415863,504.859528 334.602417,509.911743 319.827393,514.984863
	C307.342316,519.271729 294.835449,523.658264 282.058319,526.896118
	C258.645996,532.829102 235.027237,537.947571 210.855530,543.553894
	C212.175400,534.473389 206.248856,531.501282 200.254318,529.196655
	C195.289017,527.287720 193.098236,525.633423 193.614075,519.158203
	C194.955353,502.321503 194.606049,485.351624 194.991364,468.436218
	C195.105759,463.414490 192.859177,459.970428 188.908752,456.943848
	C179.599472,449.811462 170.566254,442.318878 161.419235,434.974640
	C159.127853,433.134857 158.502686,431.047363 159.394043,428.052460
	C161.259308,421.785370 162.692566,415.389709 164.450897,408.465363
	C165.570358,409.431763 166.578934,409.895630 166.906265,410.653656
	C168.549484,414.458862 171.487167,415.584412 175.301956,414.970459
	C184.582367,413.476898 193.867599,412.006287 203.125351,410.381012
	C210.662445,409.057831 218.162537,407.523895 225.544968,406.109131
	C226.058289,410.542694 226.793594,414.592834 226.948944,418.665100
	C227.422897,431.089447 227.723984,443.521240 227.998886,455.952209
	C228.391357,473.701019 228.648376,491.452972 229.073868,509.200928
	C229.227829,515.623108 229.663574,522.039856 230.047516,528.454529
	C230.184494,530.742981 230.445282,533.661987 233.625809,532.763062
	C235.059036,532.357971 236.526154,529.820251 236.786362,528.072693
	C237.132339,525.749329 236.089355,523.257874 236.033066,520.829529
	C235.625351,503.244293 235.368835,485.655457 234.947617,468.070587
	C234.793854,461.651093 234.101837,455.241333 234.040634,448.823456
	C233.900024,434.080750 233.996109,419.335754 233.996109,404.123260
	C233.526642,404.288605 233.945999,404.136353 234.368332,403.992828
	C242.832565,401.115601 247.625854,395.550751 247.960938,388.210632
	C248.241928,382.055511 244.006042,377.301971 235.655212,373.934509
	C234.489792,373.464539 233.584885,371.890778 232.962814,370.629059
	C231.764847,368.199371 230.160599,366.644318 227.818069,368.813782
	C226.302536,370.217316 225.565216,372.461212 224.115433,374.953949
	C221.799545,375.368530 218.307800,376.067810 214.791580,376.607910
	C207.091034,377.790710 199.392593,379.017426 191.657349,379.917267
	C190.201080,380.086670 187.755173,379.251648 187.175705,378.143158
	C184.800827,373.600189 183.129379,368.696320 180.908615,364.064545
	C176.155075,354.150391 172.669128,343.467865 163.645752,336.131927
	C156.449936,330.281769 148.563416,327.190094 139.393570,330.041260
	C133.433319,331.894440 127.711342,334.513947 121.790741,336.825989
	C122.622467,332.536865 123.412262,327.747131 124.504227,323.027344
	C125.677200,317.957458 123.644440,315.070038 118.476654,315.040192
	C111.977516,315.002625 105.457840,314.722046 98.984245,315.132843
	C92.543411,315.541565 86.250320,316.484802 80.708778,320.703217
	C72.260201,327.134521 68.017731,336.228516 65.239197,345.717682
	C60.837212,360.751221 57.247704,376.071136 54.306732,391.459534
	C53.169266,397.411224 53.688423,404.172821 55.325623,410.043152
	C57.641972,418.348663 64.811264,422.838989 72.795753,424.812927
	C80.961601,426.831726 89.426010,427.642822 97.911697,429.006989
	C96.354538,437.488312 94.187263,446.480804 93.135292,455.601990
	C90.876060,475.190979 85.228485,493.758484 77.666801,511.850861
	C72.141403,525.071106 66.751976,538.348145 61.221542,551.566284
	C59.507187,555.663635 59.855164,558.613647 64.606560,560.216309
	C68.056114,561.379822 71.358551,562.979431 75.328560,564.635742
	C63.592339,566.511902 52.566872,568.354797 41.509361,569.979675
	C39.069054,570.338196 36.729027,570.093201 37.040779,573.641663
	C37.365627,577.339172 40.057384,576.602173 42.178890,576.280518
	C57.935883,573.891235 73.684158,571.437988 89.400421,568.798096
	C90.724396,568.575623 92.866257,566.682617 92.741982,565.845947
	C92.533600,564.442993 91.051239,562.628357 89.677094,562.100220
	C82.513313,559.347046 75.214554,556.945068 67.871872,554.389282
	C68.015923,553.558289 68.015732,552.874512 68.253586,552.287109
	C74.648689,536.494812 81.408958,520.839417 87.360985,504.882507
	C91.178833,494.647156 93.811623,483.969788 96.978561,472.607330
M474.465363,321.029785
	C467.215454,318.811401 460.022736,316.367096 452.681488,314.509613
	C450.423401,313.938232 447.101105,314.111969 445.396454,315.418884
	C438.389130,320.791199 431.918762,326.856232 425.062378,332.434814
	C413.539673,341.810089 402.221832,351.490814 390.197601,360.185333
	C361.904633,380.643402 331.299011,396.818878 297.986298,407.585480
	C288.658966,410.600037 279.175873,413.133148 269.853180,416.161011
	C268.647217,416.552704 267.977448,418.595367 267.059296,419.873260
	C268.676941,420.584625 270.522705,422.201813 271.875397,421.861145
	C281.081879,419.542358 290.241180,416.993622 299.309265,414.176544
	C320.159729,407.699249 340.085815,398.954742 358.861450,387.874664
	C372.768036,379.667969 386.610229,371.174683 399.555023,361.561951
	C414.572876,350.409760 428.717194,338.056549 442.948975,325.883606
	C448.051727,321.519043 452.742279,320.163330 459.160492,322.887390
	C466.275574,325.907227 473.820740,327.913727 481.570374,330.491791
	C475.157074,339.176300 469.178894,347.243805 463.232269,355.334503
	C459.479187,360.440704 455.703033,365.533356 452.121857,370.758636
	C451.583527,371.544067 451.675537,373.248352 452.185333,374.105865
	C452.569031,374.751251 454.258972,375.186310 455.064209,374.890228
	C456.488983,374.366394 457.980865,373.452728 458.916260,372.280518
	C461.435394,369.123688 463.660492,365.733368 466.029541,362.455383
	C480.841003,341.961121 495.725311,321.518982 510.431061,300.949188
	C514.160217,295.732941 517.836182,290.886749 524.824402,289.972168
	C528.859375,289.444061 532.829773,288.422760 536.986328,287.592010
	C536.946411,288.250824 537.052979,288.938660 536.848267,289.516174
	C531.538879,304.494934 526.100647,319.429626 521.016113,334.483887
	C520.529480,335.924652 522.212708,338.098297 522.888611,339.931702
	C524.256775,338.935547 526.345825,338.221252 526.865234,336.893158
	C528.845154,331.830200 530.377014,326.587067 531.971558,321.379150
	C537.939087,301.888092 545.317505,282.850647 556.316040,265.747742
	C564.812683,252.535248 575.341431,240.597366 585.334167,228.393631
	C589.887695,222.832565 596.757141,221.933716 602.752869,226.098999
	C607.934753,229.698883 612.782532,233.983780 617.068420,238.621597
	C623.561523,245.647873 629.328308,253.224411 640.550354,252.186020
	C642.241699,252.029526 644.608276,254.140823 645.901978,255.797150
	C648.359558,258.943573 650.250549,262.530151 652.405823,265.915466
	C659.596924,277.211060 666.745300,288.534454 674.022888,299.774109
	C677.784668,305.583771 680.922424,312.163757 685.859802,316.768402
	C695.604797,325.856598 706.412231,333.804565 716.768188,342.238983
	C721.924561,346.438660 728.162537,348.618835 734.404968,347.739655
	C740.175476,346.926941 742.675842,349.282135 745.269226,353.465668
	C751.070679,362.824402 757.049622,372.077942 763.202332,381.208557
	C764.039246,382.450500 766.287659,382.741272 767.882568,383.472473
	C768.272583,381.831970 769.539917,379.660004 768.917603,378.632660
	C762.287109,367.686066 755.233948,356.995972 748.571045,346.068207
	C745.990112,341.835205 742.552246,340.633423 737.914978,340.982910
	C732.346680,341.402649 726.775085,341.402069 722.042358,337.615753
	C715.515015,332.393677 708.833313,327.354736 702.467285,321.943787
	C697.291321,317.544373 691.437256,313.423920 687.707214,307.939697
	C676.645874,291.676147 666.526978,274.773376 655.954590,258.174713
	C651.363770,250.967194 646.706299,244.169876 636.318176,244.720795
	C633.400757,244.875519 629.912476,241.949402 627.352539,239.683411
	C620.379089,233.510437 614.130615,226.478989 606.907776,220.637192
	C598.303040,213.677643 589.175781,215.409286 581.685181,222.840118
	C566.277344,238.125076 553.945312,255.600632 543.629395,274.632172
	C542.314453,277.057953 539.597412,279.361328 537.010315,280.322113
	C532.198547,282.109070 526.945007,282.664276 521.988159,284.117218
	C518.372070,285.177216 513.624268,285.848206 511.645630,288.428894
	C502.500916,300.356232 494.148682,312.891174 485.591248,325.096130
	C481.873993,323.651428 478.577240,322.370148 474.465363,321.029785
M187.967743,296.456909
	C187.967743,294.477356 187.967743,292.497772 187.967743,290.267181
	C192.559967,289.421021 197.020264,288.748444 201.384903,287.683746
	C202.401398,287.435791 203.973480,285.490753 203.754547,284.960571
	C203.262558,283.769196 201.828918,282.196075 200.740692,282.166351
	C197.509903,282.078156 194.263321,282.872375 191.017944,282.911804
	C188.663589,282.940369 185.915649,284.301208 184.241959,280.888885
	C179.678131,271.584198 172.508514,266.109558 161.817459,264.830444
	C153.385178,263.821533 141.718109,268.058472 136.997147,274.856201
	C127.318985,288.791748 130.432159,306.732269 140.810852,318.242401
	C147.530487,325.694641 162.592850,329.393585 172.854034,324.143494
	C184.075470,318.402100 187.151978,308.689056 187.967743,296.456909
z"/>
<path fill="#F9FAF9" opacity="1.000000" stroke="none"
	d="
M96.977097,473.048950
	C93.811623,483.969788 91.178833,494.647156 87.360985,504.882507
	C81.408958,520.839417 74.648689,536.494812 68.253586,552.287109
	C68.015732,552.874512 68.015923,553.558289 67.871872,554.389282
	C75.214554,556.945068 82.513313,559.347046 89.677094,562.100220
	C91.051239,562.628357 92.533600,564.442993 92.741982,565.845947
	C92.866257,566.682617 90.724396,568.575623 89.400421,568.798096
	C73.684158,571.437988 57.935883,573.891235 42.178890,576.280518
	C40.057384,576.602173 37.365627,577.339172 37.040779,573.641663
	C36.729027,570.093201 39.069054,570.338196 41.509361,569.979675
	C52.566872,568.354797 63.592339,566.511902 75.328560,564.635742
	C71.358551,562.979431 68.056114,561.379822 64.606560,560.216309
	C59.855164,558.613647 59.507187,555.663635 61.221542,551.566284
	C66.751976,538.348145 72.141403,525.071106 77.666801,511.850861
	C85.228485,493.758484 90.876060,475.190979 93.135292,455.601990
	C94.187263,446.480804 96.354538,437.488312 97.911697,429.006989
	C89.426010,427.642822 80.961601,426.831726 72.795753,424.812927
	C64.811264,422.838989 57.641972,418.348663 55.325623,410.043152
	C53.688423,404.172821 53.169266,397.411224 54.306732,391.459534
	C57.247704,376.071136 60.837212,360.751221 65.239197,345.717682
	C68.017731,336.228516 72.260201,327.134521 80.708778,320.703217
	C86.250320,316.484802 92.543411,315.541565 98.984245,315.132843
	C105.457840,314.722046 111.977516,315.002625 118.476654,315.040192
	C123.644440,315.070038 125.677200,317.957458 124.504227,323.027344
	C123.412262,327.747131 122.622467,332.536865 121.790741,336.825989
	C127.711342,334.513947 133.433319,331.894440 139.393570,330.041260
	C148.563416,327.190094 156.449936,330.281769 163.645752,336.131927
	C172.669128,343.467865 176.155075,354.150391 180.908615,364.064545
	C183.129379,368.696320 184.800827,373.600189 187.175705,378.143158
	C187.755173,379.251648 190.201080,380.086670 191.657349,379.917267
	C199.392593,379.017426 207.091034,377.790710 214.791580,376.607910
	C218.307800,376.067810 221.799545,375.368530 224.115433,374.953949
	C225.565216,372.461212 226.302536,370.217316 227.818069,368.813782
	C230.160599,366.644318 231.764847,368.199371 232.962814,370.629059
	C233.584885,371.890778 234.489792,373.464539 235.655212,373.934509
	C244.006042,377.301971 248.241928,382.055511 247.960938,388.210632
	C247.625854,395.550751 242.832565,401.115601 234.368332,403.992828
	C233.945999,404.136353 233.526642,404.288605 233.996109,404.123260
	C233.996109,419.335754 233.900024,434.080750 234.040634,448.823456
	C234.101837,455.241333 234.793854,461.651093 234.947617,468.070587
	C235.368835,485.655457 235.625351,503.244293 236.033066,520.829529
	C236.089355,523.257874 237.132339,525.749329 236.786362,528.072693
	C236.526154,529.820251 235.059036,532.357971 233.625809,532.763062
	C230.445282,533.661987 230.184494,530.742981 230.047516,528.454529
	C229.663574,522.039856 229.227829,515.623108 229.073868,509.200928
	C228.648376,491.452972 228.391357,473.701019 227.998886,455.952209
	C227.723984,443.521240 227.422897,431.089447 226.948944,418.665100
	C226.793594,414.592834 226.058289,410.542694 225.544968,406.109131
	C218.162537,407.523895 210.662445,409.057831 203.125351,410.381012
	C193.867599,412.006287 184.582367,413.476898 175.301956,414.970459
	C171.487167,415.584412 168.549484,414.458862 166.906265,410.653656
	C166.578934,409.895630 165.570358,409.431763 164.450897,408.465363
	C162.692566,415.389709 161.259308,421.785370 159.394043,428.052460
	C158.502686,431.047363 159.127853,433.134857 161.419235,434.974640
	C170.566254,442.318878 179.599472,449.811462 188.908752,456.943848
	C192.859177,459.970428 195.105759,463.414490 194.991364,468.436218
	C194.606049,485.351624 194.955353,502.321503 193.614075,519.158203
	C193.098236,525.633423 195.289017,527.287720 200.254318,529.196655
	C206.248856,531.501282 212.175400,534.473389 210.855530,543.553894
	C235.027237,537.947571 258.645996,532.829102 282.058319,526.896118
	C294.835449,523.658264 307.342316,519.271729 319.827393,514.984863
	C334.602417,509.911743 349.415863,504.859528 363.862335,498.942841
	C383.074036,491.074585 401.738342,481.922821 418.787537,469.948120
	C424.449097,465.971558 429.528381,461.039978 434.361450,456.048798
	C438.389496,451.889038 436.802917,446.845123 431.114471,444.988617
	C424.265045,442.753174 417.257080,441.007751 410.349152,438.945007
	C407.438324,438.075806 404.460419,437.227448 401.772125,435.860138
	C396.540436,433.199341 396.353424,426.729889 401.698303,424.128632
	C413.255127,418.504120 424.936676,413.092773 436.801086,408.156433
	C447.030029,403.900574 457.428680,399.912842 468.025787,396.712036
	C487.611725,390.796173 507.270264,385.017151 527.144897,380.196533
	C540.668030,376.916443 554.581238,375.167023 568.378479,373.128937
	C574.695374,372.195831 581.153076,372.215576 587.784790,371.787842
	C587.784790,362.957916 587.784790,354.205780 587.784790,345.081268
	C586.328857,345.081268 584.918884,345.081268 582.079346,345.081268
	C583.315247,342.726807 583.744995,340.448730 585.032715,339.748505
	C588.026489,338.120697 589.534058,335.667267 590.730408,332.755219
	C593.183960,326.783203 597.847351,323.185364 603.827209,320.694336
	C604.915955,308.359131 609.605103,298.370667 622.749451,294.675964
	C621.554810,291.381836 618.799316,288.380157 623.627808,285.329926
	C624.806824,284.585114 623.653076,280.555969 624.124146,278.144745
	C624.463806,276.405640 625.718567,274.845306 626.565125,273.205231
	C628.147888,274.166199 629.670593,274.427185 630.316162,277.134979
	C631.166260,280.700562 629.366516,285.433899 633.818909,288.090271
	C634.157471,288.292267 632.600891,291.670715 632.057495,293.200439
	C636.325806,296.391876 641.996643,299.134796 645.408936,303.602631
	C648.849731,308.107758 650.048340,314.325287 652.684387,320.933380
	C659.986755,322.059509 664.401550,328.634827 667.995911,336.141022
	C668.372864,336.928223 669.358032,337.421722 670.053650,338.059448
	C671.565796,339.445923 673.073181,340.837585 675.620667,343.182831
	C671.937805,344.220490 669.732117,344.841949 667.297241,345.528015
	C667.297241,354.541138 667.297241,363.885345 667.297241,373.763702
	C689.827515,377.787720 712.920898,381.082397 734.721924,390.706421
	C732.392639,395.109833 730.359680,395.492523 726.630920,394.344269
	C709.183899,388.971497 691.648376,384.095795 673.391846,381.769775
	C656.069214,379.562744 638.797974,377.764343 621.329529,377.975403
	C612.498413,378.082123 603.609314,377.351715 594.844116,378.117859
	C577.271729,379.653900 559.743896,381.779877 542.239075,383.989532
	C519.392334,386.873505 497.391144,393.495300 475.831726,401.152130
	C453.894501,408.943146 432.509796,418.292969 410.913239,427.034485
	C409.179993,427.736084 407.679993,429.013977 405.517883,430.371826
	C415.041382,433.076294 423.824493,435.388092 432.481232,438.102814
	C437.076172,439.543854 441.026489,442.182922 442.951843,446.982361
	C445.623840,453.642883 441.415710,458.214630 437.711090,462.545715
	C429.729614,471.876953 419.166626,477.880981 408.719147,483.996002
	C384.655426,498.080780 359.221954,509.185974 332.787872,517.818054
	C309.951050,525.275452 286.921692,532.250732 263.698547,538.382751
	C245.848633,543.096069 227.596649,546.326355 209.465195,549.922424
	C191.758224,553.434326 174.017181,556.810730 156.216125,559.800293
	C142.545242,562.096252 128.757904,563.698730 114.689049,565.656006
	C114.331947,564.311218 113.910576,563.581848 113.997719,562.919495
	C114.841026,556.508728 110.088203,554.377136 105.717911,551.927917
	C99.269737,548.314209 98.378693,546.457092 101.073509,539.671814
	C103.385666,533.850098 106.242950,528.243103 108.904030,522.562134
	C115.608994,508.248047 122.323357,493.938354 129.075867,479.646667
	C130.134232,477.406677 131.521637,474.611328 134.400101,476.417114
	C135.415756,477.054260 135.566345,480.625427 134.820297,482.271667
	C128.382614,496.477417 121.629578,510.540009 115.016197,524.666626
	C112.842880,529.308960 111.193504,534.245605 108.592255,538.624573
	C106.022217,542.950928 107.060905,545.082764 111.265182,547.192139
	C115.919395,549.527222 120.260094,552.501465 121.109093,558.643250
	C132.553085,556.773926 143.987946,554.759460 155.477646,553.132263
	C158.354538,552.724792 159.087112,551.669373 159.037674,549.047363
	C158.649536,528.464661 158.393082,507.879211 157.891251,487.299591
	C157.855850,485.847534 156.524567,483.883209 155.226257,483.093231
	C146.172867,477.584656 136.969040,472.323334 127.813667,466.982300
	C127.532875,466.818542 127.180649,466.711121 126.986641,466.474884
	C125.190269,464.286926 120.270309,462.980743 123.209442,459.269714
	C125.786949,456.015289 128.659760,459.087616 131.385025,460.794189
	C140.809860,466.696106 150.343063,472.437134 160.006302,477.938507
	C162.748230,479.499542 163.992996,481.207123 164.033447,484.328827
	C164.285599,503.777344 164.636520,523.224792 165.023743,542.671204
	C165.076859,545.339478 165.513657,548.000122 165.845612,551.412598
	C172.454834,550.267761 179.480896,549.091980 186.489929,547.822266
	C191.262848,546.957520 196.027313,546.030273 200.760513,544.973877
	C201.903793,544.718750 203.658737,543.985901 203.805389,543.218933
	C204.040115,541.991333 203.590591,539.935730 202.684875,539.311218
	C199.276367,536.960815 195.683502,534.797546 191.935730,533.042419
	C188.412506,531.392456 186.769348,529.372253 186.910797,525.163574
	C187.492889,507.846344 187.539551,490.511353 188.091965,473.192719
	C188.274582,467.467651 186.616592,463.694427 181.823029,459.953674
	C171.642776,452.009430 162.429138,442.836395 152.466904,434.592926
	C150.876114,433.276611 147.446198,433.946747 144.886169,434.078888
	C134.042648,434.638611 123.209846,435.424744 112.362389,435.861084
	C111.308121,435.903503 110.179962,434.108917 109.086105,433.166992
	C110.207161,432.117279 111.194954,430.401886 112.474823,430.145691
	C115.982437,429.443573 119.607971,429.284027 123.195595,429.037323
	C132.870621,428.371918 142.550232,427.772949 152.264267,427.145233
	C154.499557,419.812653 157.063461,412.726837 158.693832,405.432373
	C159.391953,402.308929 158.971558,398.373444 157.636719,395.458344
	C152.752426,384.791870 147.131119,374.464447 142.147751,363.840271
	C141.312683,362.059998 141.571854,357.931244 142.522690,357.494537
	C145.312210,356.213470 146.780014,358.664093 148.047699,361.170990
	C155.170197,375.256042 162.513504,389.229309 169.658051,403.303375
	C171.768478,407.460693 174.459518,408.526001 179.175980,407.528931
	C189.782440,405.286652 200.618774,404.134277 211.229355,401.908234
	C219.969238,400.074707 228.673065,397.755341 237.040482,394.689545
	C239.035965,393.958466 240.796127,389.296539 240.573456,386.616241
	C240.282410,383.113037 237.069550,380.592377 233.113846,381.040527
	C224.716278,381.991913 216.348663,383.228363 207.987488,384.473755
	C200.776993,385.547729 193.605270,386.893066 186.380554,387.846893
	C185.455063,387.969055 183.827774,386.683502 183.347061,385.663086
	C178.475006,375.321503 173.915344,364.831696 168.986389,354.518097
	C163.689102,343.433838 156.278458,335.051239 143.284653,336.061127
	C136.779343,336.566681 131.225891,339.468445 125.768509,343.372925
	C116.487984,350.012665 117.073608,360.185974 115.102776,369.350952
	C112.006149,383.751221 109.667358,398.315308 107.076408,412.822296
	C106.743050,414.688812 106.820045,416.628601 106.689095,418.835114
	C118.485764,416.347870 128.880692,410.765137 137.968384,402.580750
	C140.905029,399.936005 143.749222,397.162140 146.893280,394.788544
	C147.983414,393.965546 150.365005,393.438202 151.260208,394.062164
	C153.217758,395.426453 152.914932,397.673981 151.156815,399.267090
	C146.405518,403.572327 141.664352,407.901581 136.712952,411.970367
	C127.557297,419.493958 116.720238,423.469574 105.303162,426.229614
	C102.523918,441.713257 99.751236,457.160278 96.977097,473.048950
M70.013557,351.682617
	C66.680870,367.468384 62.963371,383.188202 60.239254,399.078308
	C59.370289,404.147064 60.545033,410.164459 65.312012,413.631500
	C74.562920,420.359589 85.384705,421.512970 96.425591,420.852570
	C97.676514,420.777771 99.620239,418.799683 99.860970,417.456512
	C101.775703,406.772766 103.056221,395.971466 105.103081,385.316071
	C109.144691,364.276520 113.553864,343.307556 117.878197,321.978241
	C111.291565,321.978241 104.793037,321.599243 98.357208,322.072601
	C89.999825,322.687286 82.273972,325.255096 78.146553,333.406342
	C75.260635,339.105713 72.980072,345.111572 70.013557,351.682617
M616.306946,371.021698
	C619.410217,370.344208 622.543640,369.006256 625.609680,369.146057
	C630.059692,369.348938 634.432251,370.876892 638.889832,371.373932
	C645.822021,372.146942 652.797852,372.528351 659.766968,373.076660
	C659.766968,363.404541 659.766968,354.331787 659.766968,345.229797
	C638.099976,345.229797 616.698059,345.229797 595.220276,345.229797
	C595.220276,353.892242 595.220276,362.298157 595.220276,371.021667
	C602.091492,371.021667 608.720581,371.021667 616.306946,371.021698
M650.685913,327.166412
	C647.697571,327.111664 644.709290,327.016022 641.720886,327.009521
	C631.093018,326.986389 620.454163,326.697510 609.841248,327.093353
	C602.758118,327.357483 596.873779,330.623444 595.881897,338.028778
	C606.471863,338.028778 617.199036,338.028809 627.926270,338.028809
	C638.798218,338.028809 649.670166,338.028778 660.711365,338.028778
	C659.034546,332.810486 656.080017,329.413849 650.685913,327.166412
M618.606689,320.022827
	C627.030457,320.022827 635.454285,320.022827 643.890930,320.022827
	C643.332092,307.608673 637.275085,302.058563 626.987000,301.122314
	C620.409180,300.523712 611.038513,307.217102 611.275513,320.023804
	C613.392883,320.023804 615.518799,320.023804 618.606689,320.022827
z"/>
<path fill="#F8F8F8" opacity="1.000000" stroke="none"
	d="
M474.872925,321.059326
	C478.577240,322.370148 481.873993,323.651428 485.591248,325.096130
	C494.148682,312.891174 502.500916,300.356232 511.645630,288.428894
	C513.624268,285.848206 518.372070,285.177216 521.988159,284.117218
	C526.945007,282.664276 532.198547,282.109070 537.010315,280.322113
	C539.597412,279.361328 542.314453,277.057953 543.629395,274.632172
	C553.945312,255.600632 566.277344,238.125076 581.685181,222.840118
	C589.175781,215.409286 598.303040,213.677643 606.907776,220.637192
	C614.130615,226.478989 620.379089,233.510437 627.352539,239.683411
	C629.912476,241.949402 633.400757,244.875519 636.318176,244.720795
	C646.706299,244.169876 651.363770,250.967194 655.954590,258.174713
	C666.526978,274.773376 676.645874,291.676147 687.707214,307.939697
	C691.437256,313.423920 697.291321,317.544373 702.467285,321.943787
	C708.833313,327.354736 715.515015,332.393677 722.042358,337.615753
	C726.775085,341.402069 732.346680,341.402649 737.914978,340.982910
	C742.552246,340.633423 745.990112,341.835205 748.571045,346.068207
	C755.233948,356.995972 762.287109,367.686066 768.917603,378.632660
	C769.539917,379.660004 768.272583,381.831970 767.882568,383.472473
	C766.287659,382.741272 764.039246,382.450500 763.202332,381.208557
	C757.049622,372.077942 751.070679,362.824402 745.269226,353.465668
	C742.675842,349.282135 740.175476,346.926941 734.404968,347.739655
	C728.162537,348.618835 721.924561,346.438660 716.768188,342.238983
	C706.412231,333.804565 695.604797,325.856598 685.859802,316.768402
	C680.922424,312.163757 677.784668,305.583771 674.022888,299.774109
	C666.745300,288.534454 659.596924,277.211060 652.405823,265.915466
	C650.250549,262.530151 648.359558,258.943573 645.901978,255.797150
	C644.608276,254.140823 642.241699,252.029526 640.550354,252.186020
	C629.328308,253.224411 623.561523,245.647873 617.068420,238.621597
	C612.782532,233.983780 607.934753,229.698883 602.752869,226.098999
	C596.757141,221.933716 589.887695,222.832565 585.334167,228.393631
	C575.341431,240.597366 564.812683,252.535248 556.316040,265.747742
	C545.317505,282.850647 537.939087,301.888092 531.971558,321.379150
	C530.377014,326.587067 528.845154,331.830200 526.865234,336.893158
	C526.345825,338.221252 524.256775,338.935547 522.888611,339.931702
	C522.212708,338.098297 520.529480,335.924652 521.016113,334.483887
	C526.100647,319.429626 531.538879,304.494934 536.848267,289.516174
	C537.052979,288.938660 536.946411,288.250824 536.986328,287.592010
	C532.829773,288.422760 528.859375,289.444061 524.824402,289.972168
	C517.836182,290.886749 514.160217,295.732941 510.431061,300.949188
	C495.725311,321.518982 480.841003,341.961121 466.029541,362.455383
	C463.660492,365.733368 461.435394,369.123688 458.916260,372.280518
	C457.980865,373.452728 456.488983,374.366394 455.064209,374.890228
	C454.258972,375.186310 452.569031,374.751251 452.185333,374.105865
	C451.675537,373.248352 451.583527,371.544067 452.121857,370.758636
	C455.703033,365.533356 459.479187,360.440704 463.232269,355.334503
	C469.178894,347.243805 475.157074,339.176300 481.570374,330.491791
	C473.820740,327.913727 466.275574,325.907227 459.160492,322.887390
	C452.742279,320.163330 448.051727,321.519043 442.948975,325.883606
	C428.717194,338.056549 414.572876,350.409760 399.555023,361.561951
	C386.610229,371.174683 372.768036,379.667969 358.861450,387.874664
	C340.085815,398.954742 320.159729,407.699249 299.309265,414.176544
	C290.241180,416.993622 281.081879,419.542358 271.875397,421.861145
	C270.522705,422.201813 268.676941,420.584625 267.059296,419.873260
	C267.977448,418.595367 268.647217,416.552704 269.853180,416.161011
	C279.175873,413.133148 288.658966,410.600037 297.986298,407.585480
	C331.299011,396.818878 361.904633,380.643402 390.197601,360.185333
	C402.221832,351.490814 413.539673,341.810089 425.062378,332.434814
	C431.918762,326.856232 438.389130,320.791199 445.396454,315.418884
	C447.101105,314.111969 450.423401,313.938232 452.681488,314.509613
	C460.022736,316.367096 467.215454,318.811401 474.872925,321.059326
z"/>
<path fill="#F8F8F8" opacity="1.000000" stroke="none"
	d="
M187.967712,296.926086
	C187.151978,308.689056 184.075470,318.402100 172.854034,324.143494
	C162.592850,329.393585 147.530487,325.694641 140.810852,318.242401
	C130.432159,306.732269 127.318985,288.791748 136.997147,274.856201
	C141.718109,268.058472 153.385178,263.821533 161.817459,264.830444
	C172.508514,266.109558 179.678131,271.584198 184.241959,280.888885
	C185.915649,284.301208 188.663589,282.940369 191.017944,282.911804
	C194.263321,282.872375 197.509903,282.078156 200.740692,282.166351
	C201.828918,282.196075 203.262558,283.769196 203.754547,284.960571
	C203.973480,285.490753 202.401398,287.435791 201.384903,287.683746
	C197.020264,288.748444 192.559967,289.421021 187.967743,290.267181
	C187.967743,292.497772 187.967743,294.477356 187.967712,296.926086
M168.084625,319.001770
	C178.326462,315.578491 182.848068,302.066254 180.399719,291.496307
	C166.706436,293.375336 152.939423,295.264496 139.240753,297.144257
	C138.173218,312.498444 155.179565,323.079590 168.084625,319.001770
M143.439148,277.998993
	C141.466324,281.774628 139.493500,285.550232 137.520676,289.325867
	C137.834366,289.740601 138.148056,290.155334 138.461746,290.570099
	C151.855194,288.714478 165.248657,286.858887 178.833374,284.976776
	C170.044525,267.476746 152.694748,268.967987 143.439148,277.998993
z"/>
<path fill="#000000" opacity="1.000000" stroke="none"
	d="
M70.221344,351.331604
	C72.980072,345.111572 75.260635,339.105713 78.146553,333.406342
	C82.273972,325.255096 89.999825,322.687286 98.357208,322.072601
	C104.793037,321.599243 111.291565,321.978241 117.878197,321.978241
	C113.553864,343.307556 109.144691,364.276520 105.103081,385.316071
	C103.056221,395.971466 101.775703,406.772766 99.860970,417.456512
	C99.620239,418.799683 97.676514,420.777771 96.425591,420.852570
	C85.384705,421.512970 74.562920,420.359589 65.312012,413.631500
	C60.545033,410.164459 59.370289,404.147064 60.239254,399.078308
	C62.963371,383.188202 66.680870,367.468384 70.221344,351.331604
M100.428398,350.019653
	C91.975143,351.349213 83.509277,352.607452 75.084282,354.096832
	C74.008415,354.287048 72.264191,355.830109 72.374374,356.487488
	C72.580223,357.715698 73.755325,358.975555 74.849602,359.787872
	C75.504669,360.274170 76.789879,360.076233 77.760254,359.947540
	C86.577049,358.778320 95.407173,357.681854 104.184189,356.260284
	C106.327248,355.913239 108.289490,354.449677 109.978920,353.664856
	C108.289749,347.780548 104.403389,350.161224 100.428398,350.019653
z"/>
<path fill="#000000" opacity="1.000000" stroke="none"
	d="
M615.828247,371.021667
	C608.720581,371.021667 602.091492,371.021667 595.220276,371.021667
	C595.220276,362.298157 595.220276,353.892242 595.220276,345.229797
	C616.698059,345.229797 638.099976,345.229797 659.766968,345.229797
	C659.766968,354.331787 659.766968,363.404541 659.766968,373.076660
	C652.797852,372.528351 645.822021,372.146942 638.889832,371.373932
	C634.432251,370.876892 630.059692,369.348938 625.609680,369.146057
	C622.543640,369.006256 619.410217,370.344208 615.828247,371.021667
M634.474731,357.018677
	C633.972351,355.833557 633.672363,354.494476 632.917358,353.501434
	C631.924133,352.195129 630.516235,350.170502 629.388489,350.235046
	C627.560120,350.339722 625.218872,351.465485 624.171326,352.930420
	C622.534790,355.219208 621.790100,358.148163 620.681946,360.811890
	C618.874634,365.156219 620.570618,367.845123 625.232239,367.964966
	C627.561462,368.024841 629.895935,368.046021 632.223511,367.961853
	C635.498474,367.843475 637.796631,364.679535 636.809998,361.572144
	C636.377136,360.208893 635.572510,358.963715 634.474731,357.018677
z"/>
<path fill="#000000" opacity="1.000000" stroke="none"
	d="
M650.977539,327.468658
	C656.080017,329.413849 659.034546,332.810486 660.711365,338.028778
	C649.670166,338.028778 638.798218,338.028809 627.926270,338.028809
	C617.199036,338.028809 606.471863,338.028778 595.881897,338.028778
	C596.873779,330.623444 602.758118,327.357483 609.841248,327.093353
	C620.454163,326.697510 631.093018,326.986389 641.720886,327.009521
	C644.709290,327.016022 647.697571,327.111664 650.977539,327.468658
z"/>
<path fill="#000000" opacity="1.000000" stroke="none"
	d="
M618.125671,320.023315
	C615.518799,320.023804 613.392883,320.023804 611.275513,320.023804
	C611.038513,307.217102 620.409180,300.523712 626.987000,301.122314
	C637.275085,302.058563 643.332092,307.608673 643.890930,320.022827
	C635.454285,320.022827 627.030457,320.022827 618.125671,320.023315
z"/>
<path fill="#000000" opacity="1.000000" stroke="none"
	d="
M167.670776,319.019287
	C155.179565,323.079590 138.173218,312.498444 139.240753,297.144257
	C152.939423,295.264496 166.706436,293.375336 180.399719,291.496307
	C182.848068,302.066254 178.326462,315.578491 167.670776,319.019287
z"/>
<path fill="#000000" opacity="1.000000" stroke="none"
	d="
M143.707550,277.736633
	C152.694748,268.967987 170.044525,267.476746 178.833374,284.976776
	C165.248657,286.858887 151.855194,288.714478 138.461746,290.570099
	C138.148056,290.155334 137.834366,289.740601 137.520676,289.325867
	C139.493500,285.550232 141.466324,281.774628 143.707550,277.736633
z"/>
<path fill="#F9FAF9" opacity="1.000000" stroke="none"
	d="
M100.865067,350.016479
	C104.403389,350.161224 108.289749,347.780548 109.978920,353.664856
	C108.289490,354.449677 106.327248,355.913239 104.184189,356.260284
	C95.407173,357.681854 86.577049,358.778320 77.760254,359.947540
	C76.789879,360.076233 75.504669,360.274170 74.849602,359.787872
	C73.755325,358.975555 72.580223,357.715698 72.374374,356.487488
	C72.264191,355.830109 74.008415,354.287048 75.084282,354.096832
	C83.509277,352.607452 91.975143,351.349213 100.865067,350.016479
z"/>
<path fill="#FAFAFB" opacity="1.000000" stroke="none"
	d="
M634.705688,357.341797
	C635.572510,358.963715 636.377136,360.208893 636.809998,361.572144
	C637.796631,364.679535 635.498474,367.843475 632.223511,367.961853
	C629.895935,368.046021 627.561462,368.024841 625.232239,367.964966
	C620.570618,367.845123 618.874634,365.156219 620.681946,360.811890
	C621.790100,358.148163 622.534790,355.219208 624.171326,352.930420
	C625.218872,351.465485 627.560120,350.339722 629.388489,350.235046
	C630.516235,350.170502 631.924133,352.195129 632.917358,353.501434
	C633.672363,354.494476 633.972351,355.833557 634.705688,357.341797
z"/>
</svg>
