<?xml version="1.0" standalone="no"?>
<!DOCTYPE svg PUBLIC "-//W3C//DTD SVG 20010904//EN"
 "http://www.w3.org/TR/2001/REC-SVG-20010904/DTD/svg10.dtd">
<svg version="1.0" xmlns="http://www.w3.org/2000/svg"
 width="500.000000pt" height="500.000000pt" viewBox="0 0 500.000000 500.000000"
 preserveAspectRatio="xMidYMid meet">
<metadata>
Created by potrace 1.11, written by Peter Selinger 2001-2013
</metadata>
<g transform="translate(0.000000,500.000000) scale(0.100000,-0.100000)"
fill="#000000" stroke="none">
<path d="M4400 4991 c0 -5 7 -11 15 -15 9 -3 15 0 15 9 0 8 -7 15 -15 15 -8 0
-15 -4 -15 -9z"/>
<path d="M4565 4985 c33 -6 92 -24 130 -38 172 -63 213 -76 258 -82 l47 -7 0
71 0 71 -247 -1 c-224 -1 -242 -3 -188 -14z"/>
<path d="M3155 4935 c-5 -11 -28 -55 -53 -98 -24 -43 -42 -80 -39 -83 10 -10
110 173 104 190 -3 6 -8 2 -12 -9z"/>
<path d="M4690 4871 c0 -6 7 -14 15 -17 8 -4 12 -11 8 -17 -3 -5 -1 -7 4 -4 6
4 13 0 17 -8 3 -8 10 -15 16 -15 7 0 8 6 1 19 -6 10 -7 22 -3 26 4 4 0 5 -8 3
-8 -3 -23 1 -32 10 -12 10 -18 11 -18 3z"/>
<path d="M4778 4821 c12 -11 22 -24 22 -30 0 -6 5 -11 10 -11 16 0 11 26 -8
43 -10 10 -25 17 -33 17 -9 -1 -7 -7 9 -19z"/>
<path d="M2620 4741 c-17 -17 -39 -31 -48 -31 -9 0 -23 -4 -31 -9 -9 -6 1 -9
28 -9 47 -1 61 -7 61 -29 0 -10 -6 -14 -20 -10 -10 3 -24 -1 -30 -8 -8 -9 -19
-11 -33 -6 -12 5 -40 6 -62 4 -85 -9 -105 -7 -118 11 -14 19 -78 46 -111 46
-10 0 -35 -8 -55 -19 -20 -10 -47 -24 -61 -30 -23 -10 -23 -11 -2 -7 12 2 22
0 22 -5 0 -5 -18 -9 -41 -9 -29 0 -50 -7 -71 -25 -16 -14 -42 -25 -58 -25 -15
0 -37 -8 -48 -17 -21 -18 -52 -98 -52 -133 0 -11 -5 -20 -11 -20 -6 0 -9 9 -6
20 3 11 1 23 -4 26 -5 3 -9 1 -9 -4 0 -4 -9 -18 -20 -30 -12 -13 -17 -28 -13
-38 6 -15 7 -15 21 2 13 18 14 16 8 -14 -3 -18 -12 -40 -20 -47 -12 -13 -16
-11 -30 10 -10 15 -12 26 -6 30 15 9 12 22 -4 22 -19 0 -72 -104 -68 -133 1
-5 -10 -15 -26 -21 -25 -10 -26 -11 -4 -12 13 -1 21 -5 17 -10 -3 -5 -1 -12 5
-16 18 -11 11 -27 -9 -20 -13 4 -24 -1 -33 -13 -16 -23 -45 -34 -53 -22 -4 6
-1 10 6 10 7 0 10 2 7 5 -10 11 -59 -18 -54 -32 3 -7 2 -12 -2 -12 -31 5 -42
-4 -47 -38 -3 -21 -10 -45 -15 -54 -4 -9 -5 -21 0 -28 5 -9 9 -8 14 5 6 15 10
14 37 -12 37 -35 50 -64 37 -81 -7 -9 -7 -13 1 -13 6 0 11 -5 11 -11 0 -7 -12
-9 -30 -7 -17 3 -33 1 -36 -4 -3 -4 2 -8 10 -8 9 0 16 -4 16 -10 0 -5 -6 -10
-14 -10 -16 0 -39 -51 -34 -77 2 -10 -3 -23 -11 -29 -17 -13 -7 -46 12 -38 11
4 13 -31 11 -195 -3 -211 4 -298 24 -293 7 1 12 -2 12 -8 0 -5 -4 -10 -9 -10
-5 0 -17 -20 -26 -44 -19 -51 -17 -116 8 -216 9 -36 24 -101 33 -145 9 -44 20
-85 25 -90 4 -6 8 -31 7 -55 0 -40 4 -48 41 -81 22 -20 54 -39 70 -42 25 -5
30 -12 36 -47 8 -46 32 -54 38 -12 4 25 4 24 6 -6 1 -36 -24 -82 -45 -82 -7 0
-16 -4 -19 -10 -4 -6 6 -10 24 -10 23 0 29 4 25 15 -4 8 -1 15 6 15 12 0 11
-16 -3 -85 -3 -11 -8 -51 -13 -90 -4 -38 -9 -74 -10 -80 -1 -5 -2 -15 -3 -22
0 -7 -7 -10 -15 -7 -7 3 -21 -7 -32 -23 -25 -37 -25 -164 0 -246 10 -32 16
-60 13 -63 -7 -7 -40 127 -47 191 l-6 60 -8 -50 c-7 -51 1 -106 28 -181 8 -23
24 -82 37 -130 12 -49 28 -101 36 -116 7 -16 11 -28 9 -28 -12 0 -38 65 -56
142 -11 46 -30 110 -42 143 -14 40 -22 84 -22 132 -1 40 -2 73 -2 73 -1 0 -17
-24 -35 -53 -19 -28 -60 -80 -91 -114 -32 -34 -58 -67 -58 -72 0 -5 -15 -14
-32 -20 -18 -7 -49 -23 -69 -36 -20 -13 -81 -40 -135 -61 -180 -66 -342 -156
-474 -261 -70 -56 -119 -102 -116 -109 3 -8 0 -11 -8 -8 -8 3 -20 -3 -27 -13
-8 -10 -34 -33 -59 -52 -25 -19 -55 -47 -68 -62 -36 -44 -79 -71 -102 -64 -18
6 -13 10 29 31 28 14 53 33 56 42 3 9 26 32 50 51 25 18 42 37 39 42 -3 5 -2
8 3 7 5 -2 33 18 62 44 29 27 49 48 43 48 -5 0 -15 -7 -22 -15 -19 -23 -139
-87 -150 -80 -16 10 -34 -6 -19 -16 11 -8 9 -14 -10 -30 -21 -17 -23 -22 -10
-31 11 -8 10 -9 -5 -4 -12 4 -27 -1 -43 -15 -26 -25 -32 -17 -6 9 16 16 14 17
-26 20 -24 2 -104 -4 -178 -12 -75 -9 -151 -16 -169 -16 -23 0 -34 -5 -34 -14
0 -22 104 -29 250 -17 69 5 126 8 127 7 1 -1 -34 -40 -77 -86 -77 -81 -91 -98
-70 -85 5 3 10 1 10 -4 0 -6 -9 -11 -20 -11 -11 0 -20 -4 -20 -10 0 -5 -6 -10
-13 -10 -19 0 -50 -37 -42 -49 3 -6 -6 -27 -21 -46 -29 -38 -43 -41 -24 -5 16
29 10 32 -28 13 -41 -20 -80 -72 -62 -83 9 -5 9 -9 1 -14 -8 -5 -11 -116 -11
-372 l0 -364 131 0 c112 0 130 2 125 15 -20 53 -57 420 -61 605 -4 166 13 262
59 334 36 56 76 90 76 63 0 -8 -9 -22 -20 -32 -34 -31 -77 -117 -90 -180 -22
-106 11 -555 56 -777 l6 -28 118 0 118 0 -3 83 c-1 45 -1 64 1 42 2 -22 6 -59
10 -82 l5 -43 169 0 169 0 6 43 c4 23 2 61 -3 84 -5 24 -6 89 -2 154 4 61 4
164 -1 227 -9 119 -6 142 14 107 7 -13 11 -100 13 -240 1 -121 2 -255 3 -297
l1 -78 154 0 155 0 4 33 4 32 1 -32 c2 -30 5 -33 33 -33 28 0 30 2 25 27 -3
16 -13 102 -21 193 -20 222 -24 253 -41 317 -20 77 -10 78 15 1 35 -106 50
-205 57 -375 l7 -163 59 0 c52 0 59 2 54 18 -21 69 -95 620 -131 972 -21 207
-21 206 -74 264 -26 28 -64 73 -86 100 -34 43 -35 47 -12 31 15 -9 27 -21 27
-25 0 -4 27 -37 61 -74 70 -76 84 -111 94 -242 10 -132 41 -388 79 -664 44
-314 56 -380 68 -380 6 0 8 10 5 23 -3 12 -20 146 -37 297 -17 151 -35 302
-40 335 -5 33 -21 151 -34 261 -33 257 -49 309 -123 399 -32 39 -66 76 -75 83
-10 7 -18 18 -18 23 0 13 77 -66 129 -131 64 -81 85 -196 182 -1015 7 -55 17
-138 23 -185 l11 -85 143 -3 c166 -3 155 -14 122 128 -28 118 -93 432 -130
630 -17 91 -42 201 -55 245 -13 44 -38 130 -54 190 -17 61 -53 174 -80 253
-27 78 -45 144 -41 147 27 17 217 -581 250 -789 12 -77 89 -462 132 -658 l32
-148 153 0 153 0 -5 23 c-22 95 -105 520 -102 524 3 2 7 -9 10 -24 27 -127 81
-383 94 -445 l16 -78 118 0 119 0 -5 33 -5 32 12 -32 11 -33 84 0 83 0 -6 26
c-5 19 -4 25 5 20 6 -4 11 -16 11 -27 0 -10 7 -19 15 -19 18 0 19 12 5 54 -5
17 -19 78 -30 136 -11 58 -22 116 -26 130 l-5 25 15 -26 c9 -15 19 -53 22 -85
4 -33 10 -63 14 -69 3 -5 15 -45 25 -87 11 -43 22 -78 26 -78 4 0 1 28 -8 62
-16 69 -28 230 -13 188 4 -14 8 -41 9 -60 1 -19 8 -69 18 -112 l16 -77 189 -1
189 0 -2 121 c-1 78 3 125 10 132 8 8 11 -14 11 -83 0 -52 3 -112 6 -133 l7
-37 142 0 143 0 -24 108 c-13 59 -35 159 -49 222 -14 63 -28 126 -31 140 -3
16 -2 21 4 15 5 -5 33 -107 61 -226 52 -215 79 -294 66 -194 -4 28 -11 51 -15
53 -5 2 -7 9 -4 16 3 7 -4 49 -15 93 -26 103 -63 292 -59 304 3 10 100 -377
119 -473 l10 -58 129 0 128 0 0 47 c0 31 -3 42 -9 32 -7 -12 -9 -11 -9 3 0 9
-3 24 -7 34 -5 13 -3 15 8 9 10 -7 8 -1 -4 18 -17 27 -15 53 4 42 5 -4 9 1 9
10 0 9 -4 14 -9 11 -5 -3 -12 1 -15 10 -5 12 -2 15 10 10 12 -5 15 -2 9 11 -4
10 -8 27 -9 38 -1 14 -7 19 -20 17 -14 -3 -17 1 -13 12 4 9 2 16 -2 16 -5 0
-12 -6 -14 -12 -3 -7 -6 1 -6 19 -1 24 -5 31 -15 27 -40 -15 -127 64 -112 102
4 11 11 11 37 -4 24 -13 33 -14 36 -4 3 7 11 19 19 26 8 8 14 26 14 40 0 39
-92 235 -111 236 -9 0 -16 6 -16 13 0 7 -14 44 -31 83 -17 38 -36 96 -43 129
-6 33 -15 65 -20 70 -8 11 6 43 15 34 6 -5 14 -42 15 -67 1 -7 5 -11 9 -8 5 3
8 -16 9 -42 0 -59 37 -156 72 -190 15 -15 32 -40 39 -57 26 -61 96 -175 106
-174 35 4 46 -2 46 -27 0 -14 -4 -22 -10 -19 -6 4 -7 -2 -1 -16 17 -47 31 -33
31 30 0 48 -3 61 -15 61 -8 0 -15 4 -15 10 0 5 5 9 12 7 7 -1 13 13 15 38 7
88 9 145 5 141 -2 -3 -13 4 -25 15 -18 16 -27 20 -52 19 -16 -1 -54 56 -65 96
-14 49 -41 74 -81 74 -18 0 -29 8 -38 28 -8 15 -17 34 -22 42 -5 8 -12 22 -16
30 -4 8 -18 23 -30 34 -13 10 -22 21 -19 24 3 2 13 -1 21 -8 11 -9 19 -10 26
-3 8 8 6 14 -7 21 -11 6 -35 41 -54 79 -19 37 -38 69 -41 71 -3 1 -5 18 -3 37
1 19 -2 35 -8 35 -6 0 -8 7 -4 15 3 8 2 15 -2 15 -12 0 -53 80 -47 91 3 4 -2
23 -11 41 -26 51 -134 193 -147 193 -6 0 -18 -18 -26 -40 -8 -22 -18 -42 -22
-45 -3 -3 -9 -22 -13 -42 -5 -27 -11 -36 -21 -31 -8 3 -15 -1 -15 -7 0 -9 -7
-7 -20 5 -21 19 -26 35 -11 35 5 0 12 -8 14 -17 4 -16 11 57 8 83 -1 7 9 14
21 17 12 4 19 9 15 13 -10 11 13 34 28 28 9 -4 12 0 8 14 -5 19 55 89 203 236
54 54 61 65 57 92 -3 18 0 41 6 52 8 15 8 23 -1 28 -7 5 -2 15 18 31 l29 23
-40 0 -40 0 3 45 c3 29 9 45 17 45 8 0 11 8 8 20 -3 11 -14 20 -24 20 -12 0
-19 8 -20 20 -2 31 -3 34 -19 56 -14 20 -55 31 -44 12 4 -5 -3 -12 -15 -15
-12 -3 -21 -11 -21 -18 0 -7 -10 -15 -22 -18 -17 -5 -19 -9 -10 -20 14 -16 5
-54 -14 -61 -7 -3 -27 6 -43 19 -48 41 -88 53 -155 48 -34 -3 -58 -2 -54 2 4
4 22 9 39 10 20 2 39 12 49 26 11 14 23 20 33 16 10 -4 21 1 27 11 8 15 11 15
19 2 8 -12 13 -12 22 -3 10 10 9 14 -2 18 -24 9 -11 69 21 101 47 47 11 89
-55 64 -15 -6 -31 -7 -34 -3 -3 4 -19 15 -36 23 -61 29 -101 84 -74 101 15 9
17 197 2 223 -8 15 -6 23 8 37 11 11 19 25 19 32 0 6 12 20 26 31 34 24 43 14
69 -71 17 -55 26 -70 53 -85 18 -10 49 -20 69 -23 19 -2 41 -9 48 -15 6 -5 40
-14 74 -18 68 -10 107 2 105 31 -1 9 2 14 7 11 17 -10 9 9 -8 22 -17 13 -17
13 2 14 12 0 27 6 34 13 7 6 31 12 54 12 l42 0 3 49 c2 26 -1 61 -7 77 -8 23
-7 29 3 29 8 0 17 8 20 17 6 15 8 15 16 3 9 -13 10 -13 10 0 0 13 1 13 10 0 8
-12 10 -12 10 5 0 14 3 16 8 7 5 -7 8 -113 8 -236 -1 -214 4 -263 19 -177 4
22 13 42 21 45 9 3 12 11 8 17 -4 8 -3 9 4 5 14 -9 39 40 63 123 24 82 24 90
-1 99 l-20 7 20 40 c11 22 20 44 20 51 0 6 9 18 19 25 11 8 22 29 24 46 3 18
15 44 26 59 11 14 19 30 16 34 -3 5 11 31 30 60 19 29 35 59 36 69 1 24 7 57
30 151 12 48 22 131 25 195 2 60 4 112 5 115 1 3 3 25 4 50 2 25 6 65 10 90 5
31 2 59 -8 88 l-15 43 26 -18 c21 -14 58 -19 177 -24 83 -4 152 -7 153 -8 2 0
17 -14 32 -31 26 -27 30 -29 60 -18 41 14 206 3 258 -17 36 -14 219 -65 235
-65 4 0 7 6 7 13 0 20 -174 126 -207 127 -20 0 -84 13 -132 27 -22 6 0 22 33
25 25 2 26 4 10 13 -10 5 -30 22 -44 36 -15 15 -42 31 -61 36 -41 11 -116 5
-144 -12 -11 -7 -58 -16 -105 -19 -47 -4 -98 -8 -115 -10 -125 -17 -180 -28
-185 -37 -4 -5 -12 2 -18 16 -9 19 -18 25 -34 23 -15 -2 -26 5 -35 22 -7 13
-18 29 -26 35 -8 5 -17 20 -21 32 -4 12 -12 20 -19 18 -7 -3 -50 31 -97 76
-47 44 -97 85 -112 91 -16 5 -28 14 -28 19 0 13 14 11 28 -3 16 -16 15 -7 -4
30 -18 37 -51 42 -108 18 -38 -16 -56 -9 -52 19 2 11 0 32 -5 47 -5 20 -4 25
6 22 7 -3 16 -16 19 -29 6 -22 46 -43 46 -24 0 14 -115 129 -129 129 -7 0 -9
-5 -5 -12 5 -8 2 -9 -10 -5 -10 4 -20 7 -22 7 -2 0 -4 7 -4 15 0 8 -3 15 -6
15 -10 0 -54 -54 -54 -65 0 -6 -14 -12 -31 -13 -25 -2 -32 2 -41 25 -14 37
-86 90 -137 102 -23 5 -41 5 -41 0 0 -10 -60 0 -76 12 -6 5 -43 12 -82 15 -70
7 -71 6 -102 -25z m30 -21 c0 -5 -9 -10 -21 -10 -11 0 -17 5 -14 10 3 6 13 10
21 10 8 0 14 -4 14 -10z m50 -24 c0 -3 -4 -8 -10 -11 -5 -3 -10 -1 -10 4 0 6
5 11 10 11 6 0 10 -2 10 -4z m-470 -20 c0 -2 -7 -7 -16 -10 -8 -3 -12 -2 -9 4
6 10 25 14 25 6z m87 -12 c-3 -3 -12 -4 -19 -1 -8 3 -5 6 6 6 11 1 17 -2 13
-5z m923 -69 c7 -9 9 -19 5 -23 -4 -4 -10 -1 -12 6 -3 6 -10 12 -16 12 -7 -1
-2 -9 11 -19 12 -11 22 -22 22 -25 0 -3 -10 -1 -22 6 -13 7 -25 14 -26 15 -7
3 9 43 17 43 5 0 14 -7 21 -15z m168 -118 c3 -14 -5 -17 -42 -17 -56 0 -66 26
-13 33 44 5 51 3 55 -16z m-1498 -108 c0 -10 -4 -19 -9 -19 -12 0 -23 29 -15
41 8 14 24 0 24 -22z m-153 -81 c-3 -8 -6 -5 -6 6 -1 11 2 17 5 13 3 -3 4 -12
1 -19z m2043 -234 c0 -8 -5 -12 -10 -9 -6 4 -8 11 -5 16 9 14 15 11 15 -7z
m-634 -358 c3 -8 18 -18 34 -21 32 -7 62 -35 39 -36 -8 0 -5 -4 6 -8 11 -5 27
-22 35 -37 19 -37 39 -53 67 -54 12 0 25 -5 28 -10 3 -6 16 -8 28 -5 42 9 58
-17 78 -132 20 -119 25 -228 9 -238 -5 -3 -10 -2 -10 4 0 6 -22 28 -50 50
l-49 39 -163 -5 c-90 -3 -169 -5 -176 -6 -7 0 -25 -12 -40 -25 l-26 -25 -63
22 c-34 12 -67 20 -73 16 -6 -3 -32 16 -58 44 -30 31 -57 51 -71 51 -12 0 -24
7 -28 16 -3 8 -12 13 -19 10 -21 -8 -64 11 -64 29 0 8 -6 15 -12 15 -7 1 1 7
17 14 17 7 32 9 33 4 2 -4 9 -8 15 -8 8 0 7 4 -1 12 -33 33 4 51 46 22 21 -14
22 -14 22 5 0 18 6 21 40 21 22 0 40 4 40 9 0 9 48 23 87 25 13 1 28 7 35 14
8 8 4 14 -18 23 l-29 12 35 8 c19 5 41 6 48 4 7 -3 10 0 7 5 -3 6 1 10 9 10 8
0 32 18 52 39 20 22 52 47 71 56 19 9 37 23 40 31 7 18 22 18 29 0z m-648
-636 c11 -18 9 -21 -13 -30 -47 -18 -51 -15 -33 25 14 30 29 32 46 5z m756
-77 c4 -5 12 -8 17 -8 5 0 9 -4 10 -10 0 -5 -18 -15 -40 -22 -45 -13 -50 -8
-23 25 18 24 25 26 36 15z m-827 -125 c18 -13 33 -26 33 -30 0 -5 16 -8 35 -8
34 0 46 -12 25 -25 -6 -4 -8 -10 -6 -14 4 -6 -8 -123 -16 -162 -4 -20 -27 -41
-37 -35 -5 3 -11 -1 -15 -9 -3 -8 -15 -15 -26 -15 -12 0 -24 -9 -30 -22 -7
-19 -9 -17 -9 18 -1 41 -2 42 -38 46 -21 3 -41 1 -44 -5 -8 -12 -15 0 -24 41
-4 18 -14 36 -23 39 -12 5 -11 8 6 14 30 11 32 64 2 56 -22 -6 -28 8 -7 16 6
3 2 6 -10 6 -25 1 -63 33 -63 54 0 19 157 54 172 39 16 -16 28 -15 28 3 0 20
8 19 47 -7z m-456 -28 c6 -16 15 -30 20 -30 5 0 9 -9 9 -20 0 -11 -7 -20 -15
-20 -10 0 -15 -10 -15 -27 0 -19 3 -24 9 -15 6 11 10 10 15 -4 4 -9 2 -22 -3
-27 -6 -6 -7 -23 -4 -40 4 -22 3 -29 -7 -25 -15 5 -74 147 -65 156 3 4 10 0
15 -8 7 -11 10 -1 10 31 0 41 5 59 17 59 2 0 9 -13 14 -30z m1530 -50 l-10
-25 0 27 c-1 14 2 35 6 45 7 17 8 17 11 -2 1 -12 -2 -32 -7 -45z m-1274 -62
c-3 -8 -6 -5 -6 6 -1 11 2 17 5 13 3 -3 4 -12 1 -19z m-387 -179 c0 -5 -4 -9
-10 -9 -5 0 -10 7 -10 16 0 8 5 12 10 9 6 -3 10 -10 10 -16z m7 -44 c1 -14 3
-37 4 -52 1 -16 6 -31 13 -35 8 -6 8 -10 0 -15 -7 -5 -12 -30 -12 -58 0 -27 0
-61 -1 -75 -2 -23 -3 -23 -10 -5 -5 11 -6 26 -3 33 2 7 0 18 -6 25 -5 6 -10
45 -11 85 0 40 -3 77 -6 82 -7 12 5 40 19 40 6 0 12 -11 13 -25z m863 -265 c0
-5 -7 -7 -15 -4 -8 4 -15 8 -15 10 0 2 7 4 15 4 8 0 15 -4 15 -10z m244 -20
c12 -11 38 -36 59 -55 24 -23 37 -42 33 -51 -3 -8 -10 -12 -16 -9 -5 3 -10 -3
-10 -15 0 -12 4 -19 9 -16 14 9 41 -4 41 -20 0 -7 6 -11 14 -8 17 7 41 -32 26
-41 -5 -3 -10 -1 -10 5 0 6 -5 8 -10 5 -7 -4 -6 -13 1 -26 8 -16 13 -18 25 -8
8 7 14 7 14 1 0 -5 -7 -12 -15 -16 -8 -3 -15 -12 -15 -20 0 -7 -7 -17 -16 -20
-25 -10 -34 -7 -28 9 4 9 0 15 -9 15 -23 0 -30 -16 -17 -40 7 -13 7 -20 1 -20
-6 0 -8 -7 -5 -15 8 -19 -6 -19 -32 -1 -10 8 -23 11 -29 7 -14 -11 -106 -1
-99 10 3 5 -3 12 -13 16 -10 3 -43 17 -73 30 -42 18 -51 26 -40 33 10 7 11 10
3 10 -7 0 -13 4 -13 10 0 6 39 10 99 9 100 -1 134 8 157 40 10 12 15 13 27 3
9 -8 18 -9 21 -3 4 5 -3 12 -14 16 -14 4 -20 15 -20 36 0 26 -3 29 -20 24 -17
-6 -20 -2 -20 28 0 31 -3 35 -40 46 -23 7 -50 9 -60 6 -25 -8 -54 19 -46 42 9
22 111 10 140 -17z m-194 10 c0 -5 -4 -10 -9 -10 -6 0 -13 5 -16 10 -3 6 1 10
9 10 9 0 16 -4 16 -10z m435 -191 c-10 -15 -25 -10 -19 6 4 8 10 12 15 9 5 -3
7 -10 4 -15z m-1385 -529 c-1 -3 -5 2 -9 10 -13 22 -81 220 -80 233 0 11 89
-232 89 -243z m1130 240 c0 -5 -5 -10 -11 -10 -5 0 -7 5 -4 10 3 6 8 10 11 10
2 0 4 -4 4 -10z m-1590 -114 c0 -2 -8 -10 -17 -17 -16 -13 -17 -12 -4 4 13 16
21 21 21 13z m-45 -36 c-3 -5 -11 -10 -16 -10 -6 0 -7 5 -4 10 3 6 11 10 16
10 6 0 7 -4 4 -10z m565 -199 c0 -16 107 -336 121 -363 6 -10 6 -18 2 -18 -11
0 -55 113 -93 240 -33 108 -43 140 -55 175 -7 20 -6 20 9 1 9 -11 16 -27 16
-35z m-10 -114 c12 -44 19 -81 16 -84 -5 -6 -32 79 -42 135 -11 59 2 34 26
-51z m-990 18 c14 -7 53 -54 88 -104 94 -138 82 -135 -31 7 -32 39 -62 72 -66
72 -22 0 -81 32 -76 40 7 11 47 4 85 -15z m-245 -179 c45 -23 65 -42 65 -61 0
-2 -38 21 -85 52 -46 31 -82 60 -79 65 3 4 14 0 25 -11 11 -10 44 -30 74 -45z
m-99 19 c4 -8 11 -15 17 -15 6 0 19 -7 29 -17 10 -9 28 -21 40 -27 12 -6 53
-47 92 -92 94 -106 104 -122 159 -225 16 -30 34 -61 41 -69 16 -19 98 -180 92
-180 -4 0 -86 138 -86 145 0 6 -132 220 -139 225 -3 3 -18 23 -33 45 -38 56
-107 120 -178 166 -33 21 -60 43 -60 49 0 15 20 12 26 -5z m1714 -63 c0 -13
-3 -12 -15 4 -19 25 -19 40 0 24 8 -7 15 -20 15 -28z m570 8 c0 -21 23 -32 47
-23 13 5 15 2 10 -11 -4 -11 -1 -19 11 -23 36 -14 45 -32 40 -87 l-4 -52 49
33 c42 28 77 42 77 30 0 -6 -115 -93 -138 -106 -11 -6 -37 -46 -58 -88 -20
-43 -42 -85 -49 -93 -6 -8 -18 -37 -25 -65 -13 -50 -45 -114 -64 -127 -8 -6
-7 -10 1 -16 8 -5 -3 -16 -33 -31 -24 -13 -46 -22 -48 -20 -1 2 -17 67 -35
144 -39 167 -53 199 -106 234 -22 14 -51 38 -66 52 -14 14 -32 29 -40 31 -11
4 -9 10 8 27 17 16 30 20 50 15 22 -4 25 -3 13 5 -18 13 -16 13 77 12 52 -1
63 2 68 19 5 17 91 67 107 63 4 -2 10 6 13 17 4 11 15 25 26 30 10 6 19 16 19
22 0 14 32 38 42 32 5 -3 8 -13 8 -24z m-1705 -135 c4 -22 5 -65 3 -95 l-3
-55 -8 50 c-17 116 -27 157 -47 184 -11 16 -20 35 -20 42 0 28 70 -88 75 -126z
m1187 13 c-4 -16 -7 -15 -23 6 -11 13 -19 31 -19 40 0 12 5 10 23 -7 12 -12
21 -30 19 -39z m-1492 -30 c53 -71 118 -178 107 -178 -6 0 -64 84 -67 95 -5
24 -35 63 -43 58 -6 -3 -7 -1 -4 4 4 6 0 16 -8 23 -14 12 -58 80 -51 80 2 0
32 -37 66 -82z m-310 30 c-24 -41 -28 -90 -31 -318 -2 -115 -4 -145 -8 -100
-7 70 -4 262 5 346 5 47 39 123 50 111 3 -2 -4 -20 -16 -39z m43 0 c-3 -18
-10 -42 -16 -52 -5 -11 -9 -131 -9 -285 0 -180 -2 -255 -9 -231 -5 19 -8 139
-8 265 1 205 3 236 21 283 23 60 30 66 21 20z m2804 0 c-3 -8 -6 -5 -6 6 -1
11 2 17 5 13 3 -3 4 -12 1 -19z m-67 -71 c0 -4 -5 -5 -11 -1 -7 4 -10 1 -7 -7
3 -8 9 -14 15 -14 5 0 17 -7 26 -17 14 -13 14 -18 3 -27 -11 -9 -18 -6 -33 16
-24 34 -37 66 -23 58 17 -11 11 10 -10 33 -11 12 -20 25 -20 29 1 10 60 -59
60 -70z m125 -17 c-3 -4 2 -13 10 -20 8 -7 15 -9 15 -4 0 12 20 -19 20 -31 0
-5 -5 -3 -11 5 -8 12 -9 9 -5 -12 3 -15 2 -30 -4 -33 -5 -3 -10 0 -10 8 0 7
-13 41 -30 75 -38 79 -42 128 -5 64 14 -24 23 -48 20 -52z m-1336 -30 c0 -23
-1 -23 -9 -5 -5 11 -9 31 -9 45 0 23 1 23 9 5 5 -11 9 -31 9 -45z m-2006 -85
c-3 -9 -8 -14 -10 -11 -3 3 -2 9 2 15 9 16 15 13 8 -4z m3117 -9 c0 -3 -4 -8
-10 -11 -5 -3 -10 -1 -10 4 0 6 5 11 10 11 6 0 10 -2 10 -4z m-2336 -64 c-4
-18 -10 -32 -15 -32 -15 0 -21 22 -14 57 6 31 8 34 21 21 10 -9 12 -24 8 -46z
m2248 11 c-17 -21 -49 -58 -71 -81 -23 -24 -39 -47 -36 -52 3 -4 -2 -13 -10
-20 -12 -10 -15 -10 -15 0 0 13 -109 -114 -141 -165 -10 -16 -19 -25 -19 -19
0 7 18 38 41 70 22 33 51 75 64 94 14 19 28 40 32 45 5 6 8 16 8 24 0 8 11 15
24 16 16 1 44 24 80 63 61 68 90 84 43 25z m78 0 c-18 -16 -41 -37 -49 -48 -9
-11 -52 -55 -96 -99 -44 -44 -79 -84 -77 -89 1 -4 -2 -6 -7 -3 -5 4 -40 -34
-77 -84 -37 -49 -69 -90 -71 -90 -2 0 8 23 23 51 25 44 52 79 110 141 8 9 17
24 18 34 1 9 10 18 19 20 19 2 80 56 157 136 30 32 61 58 69 58 8 0 0 -12 -19
-27z m-2190 -40 c-1 -10 -39 39 -40 51 0 5 9 -3 20 -17 11 -14 20 -29 20 -34z
m1007 -15 c-3 -8 -6 -5 -6 6 -1 11 2 17 5 13 3 -3 4 -12 1 -19z m1210 -15 c-9
-9 -20 -13 -24 -9 -4 4 1 14 11 22 25 18 35 8 13 -13z m-2196 -5 c11 -21 11
-22 -4 -9 -10 7 -17 17 -17 22 0 15 9 10 21 -13z m1053 -261 c50 -229 83 -412
57 -322 -10 36 -121 567 -121 579 0 29 14 -26 64 -257z m385 153 c1 -13 0 -13
-9 0 -5 8 -9 24 -9 35 l0 20 9 -20 c5 -11 9 -27 9 -35z m686 -10 c-14 -28 -44
-71 -66 -95 -21 -23 -39 -45 -39 -49 0 -4 -7 -14 -15 -22 -17 -18 -20 -34 -5
-34 6 0 10 5 10 11 0 5 5 7 10 4 6 -3 10 -11 10 -17 0 -6 -3 -8 -7 -5 -3 4
-12 -1 -20 -11 -8 -9 -12 -12 -9 -6 9 18 -22 40 -36 26 -7 -7 -9 -12 -5 -12 3
0 -15 -20 -41 -45 -27 -24 -65 -74 -86 -110 -22 -36 -40 -64 -42 -62 -7 7 79
162 96 174 29 21 72 91 64 105 -6 10 -5 10 9 0 14 -12 16 -11 14 10 0 13 -6
26 -11 30 -13 9 -38 -11 -30 -23 7 -13 -94 -139 -112 -139 -8 0 -14 6 -14 13
0 20 68 119 107 154 21 19 32 37 27 44 -4 7 -3 9 3 6 6 -4 28 13 48 38 21 24
42 42 46 39 5 -3 9 0 9 5 0 6 7 11 15 11 25 0 17 -16 -26 -55 l-41 -37 22 -20
c22 -21 38 -19 24 4 -14 22 -13 36 3 49 12 11 13 8 8 -14 -5 -18 -3 -27 5 -27
6 0 8 5 5 11 -4 6 0 9 11 7 13 -2 27 12 49 48 38 66 44 62 10 -6z m-648 18
c-3 -8 -6 -5 -6 6 -1 11 2 17 5 13 3 -3 4 -12 1 -19z m32 -67 c9 -6 -1 -9 -28
-9 -23 -1 -39 3 -36 9 8 11 45 12 64 0z m611 -51 c0 -5 -5 -10 -11 -10 -5 0
-7 5 -4 10 3 6 8 10 11 10 2 0 4 -4 4 -10z m-618 -32 c-11 -11 -62 -3 -62 10
0 4 16 6 36 4 24 -3 32 -8 26 -14z m35 -75 c-10 -9 -14 -2 -21 37 l-6 35 17
-32 c9 -18 13 -36 10 -40z m883 57 c0 -5 -2 -10 -4 -10 -3 0 -8 5 -11 10 -3 6
-1 10 4 10 6 0 11 -4 11 -10z m-746 -79 c-6 -7 -11 2 -17 34 l-6 30 13 -30 c8
-16 12 -32 10 -34z m-2177 -53 c-3 -7 -5 -2 -5 12 0 14 2 19 5 13 2 -7 2 -19
0 -25z m1786 -43 l6 -40 -14 35 c-7 19 -14 46 -14 60 0 22 1 23 8 5 5 -11 11
-38 14 -60z m-1746 33 c-3 -8 -6 -5 -6 6 -1 11 2 17 5 13 3 -3 4 -12 1 -19z
m2395 0 c-7 -7 -12 -8 -12 -2 0 14 12 26 19 19 2 -3 -1 -11 -7 -17z m528 7 c0
-8 -7 -15 -15 -15 -8 0 -15 7 -15 15 0 8 7 15 15 15 8 0 15 -7 15 -15z m-981
-100 c0 -5 -4 -3 -9 5 -5 8 -9 22 -9 30 0 16 17 -16 18 -35z m-1932 -12 c-3
-10 -5 -2 -5 17 0 19 2 27 5 18 2 -10 2 -26 0 -35z m2184 -30 c-12 -20 -14
-14 -5 12 4 9 9 14 11 11 3 -2 0 -13 -6 -23z m42 -38 c-3 -9 -8 -14 -10 -11
-3 3 -2 9 2 15 9 16 15 13 8 -4z"/>
<path d="M3000 1970 c0 -5 5 -10 10 -10 6 0 10 5 10 10 0 6 -4 10 -10 10 -5 0
-10 -4 -10 -10z"/>
<path d="M2698 443 c7 -3 16 -2 19 1 4 3 -2 6 -13 5 -11 0 -14 -3 -6 -6z"/>
<path d="M2976 425 c-16 -16 -16 -18 0 -30 9 -6 14 -17 10 -23 -12 -20 10 -13
29 8 18 20 18 21 -2 41 -19 19 -21 19 -37 4z"/>
<path d="M3407 4689 c6 -6 26 -13 44 -16 19 -3 36 -8 39 -12 7 -10 59 -31 75
-31 18 0 20 19 3 24 -7 2 -38 12 -68 21 -68 22 -106 27 -93 14z"/>
<path d="M2490 4675 c-7 -8 -8 -15 -2 -15 5 0 15 7 22 15 7 8 8 15 2 15 -5 0
-15 -7 -22 -15z"/>
<path d="M3890 4625 c0 -2 9 -9 20 -15 16 -9 18 -8 14 5 -5 13 -34 22 -34 10z"/>
<path d="M3953 4616 c4 -9 1 -16 -6 -16 -7 0 -1 -9 13 -20 14 -12 34 -18 46
-15 15 3 24 -2 32 -20 11 -23 23 -30 45 -26 4 1 22 -14 40 -33 18 -19 49 -40
70 -47 20 -7 37 -16 37 -20 0 -4 13 -12 29 -19 16 -6 38 -22 50 -36 11 -13 39
-31 60 -40 22 -9 47 -27 56 -40 8 -13 24 -24 35 -24 10 0 26 -10 35 -22 12
-16 19 -19 22 -10 5 14 39 16 48 3 3 -6 -2 -14 -10 -19 -22 -12 -8 -42 20 -42
13 0 30 -10 39 -25 9 -14 21 -23 26 -20 6 4 10 2 10 -4 0 -6 8 -7 17 -4 11 4
12 8 5 11 -11 3 -18 42 -7 42 13 0 55 -25 55 -32 0 -5 -7 -16 -15 -25 -20 -20
-3 -43 31 -43 14 0 24 -6 24 -14 0 -8 9 -18 20 -21 11 -3 20 -11 20 -16 0 -5
6 -9 13 -9 7 0 26 -12 43 -27 39 -35 64 -52 87 -59 9 -4 17 -10 17 -15 0 -5 9
-9 20 -9 19 0 20 7 20 115 l0 115 -31 0 c-20 0 -29 4 -26 13 2 7 16 11 31 9
24 -3 27 -1 24 20 -3 21 -8 23 -73 25 -220 7 -248 15 -384 110 -63 44 -190
113 -214 117 -7 1 -29 14 -48 29 -20 15 -42 27 -48 27 -7 0 -25 6 -39 14 -34
18 -65 30 -74 28 -5 -1 -8 2 -8 7 0 5 -8 12 -17 15 -32 11 -67 35 -80 52 -7
10 -13 14 -13 10 0 -5 -12 0 -27 9 -23 16 -25 16 -20 1z m882 -566 c3 -5 -1
-10 -9 -10 -9 0 -16 5 -16 10 0 6 4 10 9 10 6 0 13 -4 16 -10z"/>
<path d="M3670 4611 c0 -6 18 -20 40 -31 22 -11 40 -25 40 -30 0 -6 11 -8 25
-4 17 4 27 1 30 -9 4 -8 18 -14 33 -14 15 0 21 2 15 4 -7 3 -13 10 -13 17 0
15 -64 51 -105 59 -16 3 -38 9 -47 12 -11 4 -18 3 -18 -4z"/>
<path d="M4697 4549 c7 -7 15 -10 18 -7 3 3 -2 9 -12 12 -14 6 -15 5 -6 -5z"/>
<path d="M4221 4271 c-11 -7 -10 -10 4 -18 9 -5 16 -14 15 -19 -1 -5 3 -10 9
-12 5 -2 9 9 8 24 -3 30 -14 38 -36 25z"/>
<path d="M4410 3680 c19 -10 43 -19 53 -20 34 0 -5 26 -48 34 l-40 6 35 -20z"/>
<path d="M4530 3640 c10 -19 50 -29 50 -12 0 14 -24 32 -42 32 -16 0 -17 -3
-8 -20z"/>
<path d="M4650 3605 c0 -8 4 -15 9 -15 5 0 16 -3 25 -6 11 -4 16 -1 16 11 0 9
-4 14 -9 10 -5 -3 -12 -1 -16 5 -9 15 -25 12 -25 -5z"/>
<path d="M4145 3550 c-3 -5 -5 -10 -3 -11 2 0 10 -2 18 -4 68 -14 236 -61 238
-67 2 -4 9 -5 15 -2 14 5 239 -51 269 -67 11 -6 22 -8 25 -5 3 3 22 -2 42 -10
20 -9 44 -17 55 -19 26 -6 75 -57 69 -73 -3 -7 -2 -12 3 -11 5 1 21 1 36 0 21
-1 26 -5 21 -17 -5 -14 -2 -16 20 -11 21 6 27 3 35 -21 8 -21 11 -1 11 89 l1
115 -87 22 c-49 12 -99 21 -113 21 -14 0 -56 6 -95 15 -124 26 -198 37 -305
41 -58 3 -121 10 -140 15 -45 13 -107 13 -115 0z"/>
<path d="M3957 3528 c15 -7 30 -7 50 0 26 10 24 10 -22 11 -42 0 -46 -2 -28
-11z"/>
<path d="M4970 3522 c0 -5 7 -17 15 -28 14 -18 14 -18 15 9 0 17 -5 27 -15 27
-8 0 -15 -4 -15 -8z"/>
<path d="M3995 3510 c-4 -6 10 -10 35 -10 25 0 39 4 35 10 -3 6 -19 10 -35 10
-16 0 -32 -4 -35 -10z"/>
<path d="M4080 3494 c0 -8 5 -12 10 -9 6 4 8 11 5 16 -9 14 -15 11 -15 -7z"/>
<path d="M4503 3255 c0 -8 8 -15 17 -15 9 0 20 -4 26 -9 11 -12 125 -42 134
-36 9 5 6 34 -4 58 -7 14 -22 17 -90 17 -67 0 -83 -3 -83 -15z"/>
<path d="M4754 3204 c3 -9 6 -18 6 -20 0 -2 9 -4 19 -4 14 0 19 6 18 20 -1 14
-8 20 -25 20 -18 0 -23 -4 -18 -16z"/>
<path d="M4876 3201 c-7 -10 40 -48 64 -51 31 -5 40 1 40 25 0 22 -4 25 -34
25 -19 0 -41 3 -49 6 -8 3 -18 1 -21 -5z"/>
<path d="M4315 2980 c-3 -5 3 -10 15 -10 13 0 20 -5 18 -12 -3 -7 0 -18 6 -24
11 -10 20 -13 91 -30 16 -4 36 -13 43 -21 7 -7 20 -13 27 -13 7 0 22 -11 32
-23 10 -14 35 -27 56 -31 20 -4 37 -11 37 -16 0 -10 29 -21 67 -25 14 -1 28
-7 32 -12 15 -22 103 -64 121 -58 11 4 20 3 20 -2 0 -8 88 -43 109 -43 7 0 11
28 11 81 0 90 -13 112 -60 102 -35 -6 -165 30 -253 71 -47 22 -96 37 -137 41
-36 4 -100 13 -144 21 -93 17 -83 16 -91 4z"/>
<path d="M4750 2550 c-25 -8 -25 -8 5 -9 17 -1 46 -5 65 -10 19 -5 67 -12 105
-15 59 -4 67 -3 53 8 -10 7 -50 16 -90 20 -39 3 -81 8 -92 10 -12 3 -32 1 -46
-4z"/>
<path d="M4024 2483 c2 -10 11 -20 22 -22 10 -2 25 -8 32 -13 9 -8 11 -7 6 6
-5 13 0 16 24 16 43 0 92 -11 92 -21 0 -5 -10 -9 -22 -9 -20 0 -21 -2 -7 -15
22 -23 129 -58 172 -56 20 0 37 -2 37 -7 0 -12 52 -32 83 -32 38 0 25 17 -24
30 -45 13 -43 30 4 30 30 -1 97 -29 70 -30 -20 0 20 -60 40 -60 10 0 32 -7 49
-16 28 -15 34 -15 69 1 24 11 45 15 56 10 16 -8 15 -9 -5 -13 -13 -2 -22 -8
-20 -14 2 -5 6 -8 9 -6 3 2 13 -3 22 -11 11 -9 28 -11 53 -7 31 6 36 4 41 -13
4 -15 13 -21 33 -21 19 0 29 -6 33 -20 3 -13 14 -20 30 -20 13 0 30 -7 37 -15
7 -8 19 -15 26 -15 11 0 14 19 14 85 0 79 -1 85 -21 85 -11 0 -17 4 -14 10 3
6 -1 7 -9 4 -9 -3 -23 -4 -31 0 -13 5 -12 9 6 30 12 13 32 27 45 30 20 5 24
13 24 41 0 24 -5 35 -14 35 -26 0 -146 -30 -188 -47 l-41 -16 21 -18 c32 -25
27 -31 -12 -15 -18 8 -49 14 -67 14 -19 0 -61 9 -93 21 -32 11 -63 18 -68 15
-5 -3 -30 1 -56 10 -26 8 -87 20 -137 26 -49 6 -112 18 -140 25 -27 8 -80 17
-117 20 -61 6 -66 5 -64 -12z"/>
<path d="M4375 2250 c-18 -6 -18 -8 5 -20 27 -14 60 -48 60 -61 0 -4 12 -21
26 -38 19 -23 34 -31 59 -31 19 0 37 -5 41 -11 4 -6 20 -8 40 -4 26 4 34 3 34
-9 0 -8 8 -17 19 -21 10 -3 29 -14 41 -25 12 -11 27 -17 32 -14 5 4 29 1 54
-6 31 -9 44 -18 44 -30 0 -11 10 -20 28 -25 15 -3 36 -18 48 -32 14 -17 32
-26 57 -28 l37 -3 0 66 0 67 -38 18 c-20 9 -55 28 -77 42 -33 20 -200 82 -240
89 -5 1 -14 4 -20 7 -5 3 -37 14 -70 24 -33 10 -83 26 -111 35 -27 9 -59 14
-69 10z"/>
<path d="M3245 2220 c-8 -13 -1 -24 14 -19 6 3 7 10 2 18 -6 10 -10 10 -16 1z"/>
<path d="M4175 2195 c-49 -17 -119 -51 -154 -73 -35 -23 -70 -42 -77 -42 -7 0
-17 -6 -21 -12 -7 -11 -54 -36 -190 -101 -27 -12 -21 -27 7 -20 13 3 20 0 20
-8 1 -9 6 -7 16 6 12 17 25 20 80 18 36 -1 62 2 59 7 -3 5 6 12 20 16 19 5 23
9 15 19 -8 9 -6 14 4 18 9 4 18 2 21 -3 10 -15 45 -12 51 5 4 10 20 15 44 15
22 0 42 5 45 10 3 6 15 10 25 10 10 0 23 6 27 13 9 13 47 37 101 62 28 13 32
19 26 38 -4 12 -7 30 -6 40 1 22 -5 21 -113 -18z m-358 -221 c-3 -3 -12 -4
-19 -1 -8 3 -5 6 6 6 11 1 17 -2 13 -5z"/>
<path d="M3976 1814 c-3 -9 -6 -25 -6 -36 0 -17 3 -18 15 -8 17 14 20 46 6 54
-5 3 -12 -1 -15 -10z"/>
<path d="M2920 1601 c-12 -24 -13 -31 -1 -31 5 0 11 11 13 25 6 30 2 32 -12 6z"/>
<path d="M726 1385 c-11 -8 -17 -17 -14 -20 2 -3 13 4 23 15 21 23 18 25 -9 5z"/>
<path d="M3253 1368 c31 -79 40 -98 48 -98 5 0 9 -6 9 -14 0 -7 10 -24 23 -38
44 -50 57 -68 47 -68 -6 0 -10 -5 -10 -10 0 -6 11 -8 26 -4 20 5 26 2 31 -15
3 -11 9 -21 13 -21 5 0 13 -14 19 -30 5 -17 17 -33 26 -36 8 -3 15 -10 15 -15
0 -8 36 -66 65 -104 8 -10 15 -23 15 -27 0 -4 4 -8 9 -8 13 0 19 112 8 128 -6
7 -7 15 -4 19 4 3 14 -9 22 -28 10 -22 14 -25 10 -9 -18 72 -22 99 -12 103 9
3 -5 25 -39 61 -6 6 -9 17 -6 25 3 10 0 12 -11 8 -11 -4 -14 -2 -11 8 4 9 -4
16 -23 21 -15 4 -35 13 -44 21 -14 12 -19 12 -32 -1 -13 -14 -16 -14 -21 -1
-3 8 -11 15 -18 15 -14 0 -52 59 -44 68 3 2 12 -3 21 -12 9 -9 21 -16 27 -16
17 0 -35 37 -90 65 -55 28 -77 32 -69 13z m204 -204 c-3 -3 -12 -4 -19 -1 -8
3 -5 6 6 6 11 1 17 -2 13 -5z"/>
<path d="M3243 1295 c4 -9 7 -20 7 -24 0 -4 7 -8 15 -8 21 0 19 9 -7 31 -19
16 -20 17 -15 1z"/>
<path d="M0 1261 l0 -41 40 0 c35 0 40 3 40 24 0 28 -14 42 -53 51 -26 7 -27
6 -27 -34z"/>
<path d="M3338 1163 c7 -3 16 -2 19 1 4 3 -2 6 -13 5 -11 0 -14 -3 -6 -6z"/>
<path d="M3406 1095 c4 -8 11 -15 16 -15 6 0 5 6 -2 15 -7 8 -14 15 -16 15 -2
0 -1 -7 2 -15z"/>
<path d="M3869 1073 c14 -27 14 -56 1 -48 -18 11 -11 -11 9 -29 35 -32 35 30
0 74 -17 21 -19 22 -10 3z"/>
<path d="M3654 1020 c3 -25 8 -76 12 -113 9 -103 42 -280 43 -232 1 49 -45
375 -54 384 -4 3 -4 -14 -1 -39z"/>
<path d="M3696 1001 c4 -75 16 -161 22 -157 4 2 7 -28 8 -68 1 -118 13 -186
30 -179 8 3 14 2 13 -3 -1 -5 0 -11 1 -14 2 -3 4 -21 5 -40 4 -66 25 -153 40
-170 8 -9 15 -21 15 -26 0 -5 -5 -2 -10 6 -14 22 -12 3 6 -65 8 -33 17 -67 19
-75 6 -28 63 -160 79 -185 16 -24 21 -25 112 -25 l95 0 -5 48 c-3 26 -8 85
-11 132 -6 86 -30 292 -41 343 -3 15 -17 39 -30 52 -14 14 -21 25 -17 26 4 0
-2 4 -15 9 -12 5 -25 18 -29 27 -4 10 -11 21 -17 25 -5 3 -11 14 -12 23 -1 9
-10 25 -18 34 -9 10 -16 23 -16 29 0 7 -4 12 -8 12 -4 0 -21 22 -37 49 -17 28
-35 47 -42 44 -7 -3 -13 0 -13 6 0 6 6 11 13 11 9 0 9 2 -1 9 -8 4 -12 12 -10
17 1 5 -10 12 -27 15 -16 4 -26 7 -21 8 5 0 4 7 -1 14 -6 6 -16 29 -22 50 -7
20 -19 37 -27 37 -8 0 -14 5 -14 10 0 6 -4 10 -8 10 -5 0 -7 -18 -6 -39z m138
-557 c3 -8 2 -12 -4 -9 -6 3 -10 10 -10 16 0 14 7 11 14 -7z m66 -204 c0 -5
-4 -10 -10 -10 -5 0 -10 5 -10 10 0 6 5 10 10 10 6 0 10 -4 10 -10z"/>
<path d="M3493 946 c7 -14 14 -23 16 -20 2 2 11 -2 20 -9 9 -6 4 2 -9 20 -30
38 -43 42 -27 9z"/>
<path d="M3915 945 c2 -16 13 -48 24 -71 11 -22 23 -52 26 -67 6 -22 35 -60
35 -44 0 7 -70 178 -80 196 -7 12 -8 8 -5 -14z"/>
<path d="M4785 950 c3 -5 8 -10 11 -10 2 0 4 5 4 10 0 6 -5 10 -11 10 -5 0 -7
-4 -4 -10z"/>
<path d="M3613 915 c0 -22 2 -30 4 -17 2 12 2 30 0 40 -3 9 -5 -1 -4 -23z"/>
<path d="M4716 914 c-18 -17 -21 -28 -7 -20 5 4 12 0 15 -6 3 -7 4 -4 3 7 -1
14 6 21 28 26 30 7 30 7 3 8 -15 0 -34 -6 -42 -15z"/>
<path d="M3636 850 l6 -45 -21 25 -21 25 12 -31 c7 -20 17 -30 25 -27 10 4 13
-8 14 -48 1 -30 2 -82 3 -116 1 -34 -1 -97 -6 -140 -4 -43 -3 -92 1 -109 5
-18 5 -38 -1 -49 -7 -11 -7 -25 1 -41 13 -30 26 -31 27 -1 1 12 3 59 5 104 4
78 5 83 26 83 16 0 21 4 17 15 -4 8 -14 15 -23 15 -27 0 -31 10 -14 36 14 23
14 24 -2 18 -15 -6 -16 -4 -8 10 5 9 6 38 3 64 -4 26 -13 88 -20 137 -13 93
-33 156 -24 75z m34 -420 c0 -5 -2 -10 -4 -10 -3 0 -8 5 -11 10 -3 6 -1 10 4
10 6 0 11 -4 11 -10z"/>
<path d="M4150 700 c0 -16 4 -30 8 -30 5 0 7 14 4 30 -2 17 -6 30 -8 30 -2 0
-4 -13 -4 -30z"/>
<path d="M4285 640 c-4 -7 -2 -16 5 -20 16 -10 24 -110 9 -110 -7 0 -9 -10 -5
-24 3 -14 1 -28 -5 -32 -9 -5 -10 6 -6 42 4 40 3 46 -7 31 -7 -9 -16 -14 -19
-10 -4 3 -7 -1 -7 -10 0 -8 6 -18 13 -21 9 -5 9 -7 0 -12 -8 -4 -7 -10 4 -24
9 -10 21 -16 26 -13 6 3 7 1 3 -5 -3 -6 8 -21 25 -35 25 -19 32 -34 36 -71 5
-37 3 -46 -10 -46 -10 0 -13 6 -10 19 3 13 -6 30 -29 53 -19 18 -42 47 -51 63
-11 20 -16 24 -17 13 0 -26 4 -33 15 -30 6 2 0 -6 -12 -18 -13 -11 -23 -30
-23 -41 0 -23 -34 -139 -56 -187 -18 -41 -17 -72 1 -96 8 -11 15 -27 15 -35
-1 -13 -4 -12 -15 3 -15 19 -15 19 -15 -1 0 -20 6 -21 111 -22 l112 -2 -6 61
c-5 40 -3 60 4 60 7 0 8 14 4 41 -5 31 -3 45 11 60 12 14 14 23 7 30 -7 7 -7
24 -1 52 14 60 3 211 -17 239 l-16 23 7 -27 c3 -16 2 -28 -3 -28 -4 0 -14 24
-21 52 -13 57 -44 99 -57 78z m78 -190 c-5 -20 -15 -25 -26 -14 -8 8 15 44 24
38 4 -2 5 -13 2 -24z m-36 -292 c-3 -8 -6 -5 -6 6 -1 11 2 17 5 13 3 -3 4 -12
1 -19z"/>
<path d="M4147 622 c-10 -10 -17 -24 -17 -30 0 -6 -7 -9 -15 -6 -12 5 -14 0
-10 -22 3 -16 14 -105 26 -199 11 -93 22 -172 25 -174 5 -5 19 34 29 78 5 26
4 32 -6 29 -8 -3 -14 -10 -14 -15 0 -6 -3 -15 -7 -19 -5 -4 -8 5 -8 19 0 22 5
27 24 27 25 0 36 21 36 70 0 37 -21 10 -22 -29 -1 -18 -6 -30 -12 -28 -6 2 -9
13 -6 23 2 10 4 39 4 64 0 25 5 49 11 53 6 6 7 10 0 13 -5 2 -8 27 -6 55 3 45
4 48 17 32 13 -17 13 -17 14 3 0 20 -17 44 -33 44 -4 0 -5 -6 -1 -12 5 -10 4
-10 -6 -1 -11 10 -11 15 0 28 18 21 -3 19 -23 -3z"/>
<path d="M3711 609 c0 -13 4 -33 9 -44 7 -14 8 -8 3 20 -7 46 -13 59 -12 24z"/>
<path d="M3696 444 c-4 -9 -4 -19 -1 -22 2 -3 7 3 11 12 4 9 4 19 1 22 -2 3
-7 -3 -11 -12z"/>
<path d="M4207 435 c-4 -8 -2 -17 3 -20 6 -4 10 3 10 14 0 25 -6 27 -13 6z"/>
<path d="M3610 413 c1 -16 7 -39 16 -53 l15 -25 -8 25 c-4 14 -7 37 -8 53 0
15 -3 27 -7 27 -5 0 -8 -12 -8 -27z"/>
<path d="M3725 430 c3 -5 8 -10 11 -10 2 0 4 5 4 10 0 6 -5 10 -11 10 -5 0 -7
-4 -4 -10z"/>
<path d="M4498 433 c7 -3 16 -2 19 1 4 3 -2 6 -13 5 -11 0 -14 -3 -6 -6z"/>
<path d="M4560 428 c0 -22 -21 -37 -57 -40 -26 -2 -30 -5 -22 -19 10 -20 49
-49 97 -72 29 -14 37 -14 67 -1 29 12 36 12 48 0 22 -22 83 -30 117 -16 25 10
38 10 79 -4 27 -9 64 -16 80 -16 31 0 31 0 31 58 l0 57 -145 24 c-95 16 -165
22 -204 18 -46 -4 -62 -1 -75 11 -15 15 -16 15 -16 0z m365 -89 c7 -7 4 -15
-9 -25 -26 -18 -46 -18 -74 2 -19 13 -21 19 -11 30 13 16 76 11 94 -7z"/>
<path d="M3621 314 c0 -11 3 -14 6 -6 3 7 2 16 -1 19 -3 4 -6 -2 -5 -13z"/>
<path d="M3771 325 c1 -19 18 -51 18 -35 0 8 -4 22 -9 30 -5 8 -9 11 -9 5z"/>
<path d="M3634 243 c4 -16 13 -56 20 -91 14 -68 21 -81 29 -57 4 8 3 15 -1 15
-4 0 -6 20 -4 45 4 44 5 45 40 45 48 0 37 8 -15 11 -34 2 -40 6 -31 16 13 16
-6 43 -29 43 -12 0 -14 -7 -9 -27z"/>
<path d="M3791 238 c-1 -16 4 -28 9 -28 12 0 12 8 0 35 -8 18 -9 17 -9 -7z"/>
<path d="M3718 233 c12 -2 30 -2 40 0 9 3 -1 5 -23 4 -22 0 -30 -2 -17 -4z"/>
<path d="M3804 179 c-3 -6 -1 -16 5 -22 8 -8 11 -5 11 11 0 24 -5 28 -16 11z"/>
<path d="M3844 50 c2 -19 2 -27 -1 -18 -6 22 -33 12 -33 -13 0 -14 7 -19 25
-19 21 0 25 5 25 28 0 15 -5 34 -10 42 -7 11 -8 5 -6 -20z"/>
<path d="M3626 53 c-6 -14 -5 -15 5 -6 7 7 10 15 7 18 -3 3 -9 -2 -12 -12z"/>
<path d="M3660 55 c0 -5 5 -17 10 -25 5 -8 10 -10 10 -5 0 6 -5 17 -10 25 -5
8 -10 11 -10 5z"/>
<path d="M3690 46 c0 -2 7 -7 16 -10 8 -3 12 -2 9 4 -6 10 -25 14 -25 6z"/>
<path d="M4441 14 c0 -11 3 -14 6 -6 3 7 2 16 -1 19 -3 4 -6 -2 -5 -13z"/>
</g>
</svg>
